<svg height='100px' width='100px'  fill="#ffffff" xmlns="http://www.w3.org/2000/svg" viewBox="0 0 48 48" x="0px" y="0px"><title>Exit, import, login, door, enter, shopping, ecommerce</title><g><path d="M18.1316,22H6a1,1,0,0,1,0-2H18.1316l-.9636-1.4453a1,1,0,1,1,1.664-1.1094l2,3a.9669.9669,0,0,1,.0514.1091.9317.9317,0,0,1,0,.8912.9669.9669,0,0,1-.0514.1091l-2,3a1,1,0,1,1-1.664-1.1094ZM42.9271,40.361a.9356.9356,0,0,1-.0569.104.9846.9846,0,0,1-.133.1974,1.0526,1.0526,0,0,1-.413.2721c-.0284.01-.0519.0283-.0815.0357L28.7275,44.3491a3.0175,3.0175,0,0,1-.7343.0908A3.0027,3.0027,0,0,1,25,41.4385V41H16a3.0033,3.0033,0,0,1-3-3V25a1,1,0,0,1,2,0V38a1.0013,1.0013,0,0,0,1,1h9V13.5615a2.9958,2.9958,0,0,1,2.2725-2.9106L33.8762,9H16a1.0013,1.0013,0,0,0-1,1v7a1,1,0,0,1-2,0V10a3.0033,3.0033,0,0,1,3-3H42a.9288.9288,0,0,1,.1152.0233.9427.9427,0,0,1,.1682.034.961.961,0,0,1,.24.1119.9674.9674,0,0,1,.0916.0427c.0146.0114.02.03.0342.0421a.98.98,0,0,1,.187.2307.9752.9752,0,0,1,.0677.1A.9856.9856,0,0,1,43,8V40A.9877.9877,0,0,1,42.9271,40.361ZM41,39.2192V9.2808L27.7578,12.5913a.9982.9982,0,0,0-.7578.97v27.877a1,1,0,0,0,1.2422.97ZM31,23a2,2,0,1,0,2,2A2.002,2.002,0,0,0,31,23Z"></path></g></svg>