<svg height='100px' width='100px'  fill="#ffffff" xmlns="http://www.w3.org/2000/svg" xmlns:xlink="http://www.w3.org/1999/xlink" version="1.1" x="0px" y="0px" viewBox="0 0 90 90" enable-background="new 0 0 90 90" xml:space="preserve"><path d="M54.3,19.3c0,5.1-4.2,9.3-9.3,9.3s-9.3-4.2-9.3-9.3S39.9,10,45,10S54.3,14.2,54.3,19.3"></path><path d="M54.3,44.8c0,5.1-4.2,9.3-9.3,9.3s-9.3-4.2-9.3-9.3s4.2-9.3,9.3-9.3S54.3,39.7,54.3,44.8"></path><path d="M54.3,70.3c0,5.1-4.2,9.3-9.3,9.3s-9.3-4.2-9.3-9.3S39.9,61,45,61S54.3,65.2,54.3,70.3"></path></svg>