<svg height='100px' width='100px'  fill="#ffffff" xmlns="http://www.w3.org/2000/svg" xmlns:xlink="http://www.w3.org/1999/xlink" version="1.1" x="0px" y="0px" viewBox="0 0 100 100" style="enable-background:new 0 0 100 100;" xml:space="preserve"><g><g><g><path d="M51.4,66.9H49L17,52.7c-1.5-0.6-2.3-2.3-1.8-3.8c0.6-1.5,2.3-2.3,3.8-1.8c0.1,0,0.2,0.1,0.4,0.2L50.2,61L81,47.3     c1.5-0.6,3.2,0.2,3.8,1.8c0.5,1.4-0.1,2.9-1.4,3.6L51.4,66.9z"></path><path d="M51.4,52.7H49L17,38.4V33l32-14.2h2.4l32,14.2v5.4L51.4,52.7z M25.4,35.7l24.7,11l24.7-11l-24.7-11L25.4,35.7z"></path><path d="M51.4,81.2H49L17,66.9c-1.5-0.8-2-2.5-1.3-4c0.7-1.3,2.2-1.9,3.6-1.4l30.9,13.7L81,61.5c1.5-0.6,3.2,0.2,3.8,1.8     c0.5,1.4-0.1,2.9-1.4,3.6L51.4,81.2z"></path></g></g></g></svg>