<svg height='100px' width='100px'  fill="#ffffff" xmlns="http://www.w3.org/2000/svg" data-name="Layer 1" viewBox="0 0 64 64" x="0px" y="0px"><title>subscribtion-register-registration-note-evaluation</title><path d="M7,56H33v0a4.07,4.07,0,0,0,.5,0A5.77,5.77,0,0,0,39,50V12h8a1,1,0,0,0,1-1V8a5.77,5.77,0,0,0-5.5-6A4.07,4.07,0,0,0,42,2V2H13.5A5.77,5.77,0,0,0,8,8V46H3a1,1,0,0,0-1,1v3a5.82,5.82,0,0,0,5,6ZM46,8v2H39V8a3.78,3.78,0,0,1,3.5-4A3.78,3.78,0,0,1,46,8ZM10,11V8a3.78,3.78,0,0,1,3.56-4H38.41A6.3,6.3,0,0,0,37,8V50a3.78,3.78,0,0,1-3.5,4A3.78,3.78,0,0,1,30,50V47a1,1,0,0,0-1-1H10ZM4,50V48H28v2a6.3,6.3,0,0,0,1.41,4H7.74v0L7.5,54A3.78,3.78,0,0,1,4,50Z"></path><path d="M61.12,11.65l-1.86-.22.54-4.87a1,1,0,0,0-.87-1.1L55.14,5a.94.94,0,0,0-.74.21,1,1,0,0,0-.37.67l-.66,5.86L49,50.92h0a1.08,1.08,0,0,0,0,.31l1.06,5.06a10.94,10.94,0,0,1-5.9.73,11.13,11.13,0,0,1-1.66-.47A9.18,9.18,0,0,0,40.07,56a10.24,10.24,0,0,0-6.66,2.19l1.18,1.62A8.13,8.13,0,0,1,39.93,58a6.49,6.49,0,0,1,1.94.45A12,12,0,0,0,51.19,58h.06a1,1,0,0,0,.91-.58l2.54-5.53a1.11,1.11,0,0,0,.08-.3h0L59,13.42l.86.1L58.7,24.25l2,.22L62,12.75A1,1,0,0,0,61.12,11.65ZM57.71,7.32l-.44,3.88L55.47,11l.43-3.87Zm-6.1,46.51-.51-2.41.85-.67.68.86Zm1.46-4.89-.17-.22a1,1,0,0,0-.68-.38,1,1,0,0,0-.74.22l-.22.17,4-35.76,1.8.21Z"></path><path d="M18.93,16l-.62,3.84a1,1,0,0,0,.41,1,1,1,0,0,0,1.06.06L23,19.09l3.22,1.79a1.07,1.07,0,0,0,.49.12,1,1,0,0,0,.57-.18,1,1,0,0,0,.41-1L27.07,16l2.65-2.72a1,1,0,0,0-.57-1.68L25.53,11,23.91,7.58a1,1,0,0,0-1.82,0L20.47,11l-3.62.56a1,1,0,0,0-.57,1.68Zm2.37-3.06a1,1,0,0,0,.75-.56l.95-2,.95,2a1,1,0,0,0,.75.56l2.23.34L25.28,15a1,1,0,0,0-.27.86l.38,2.31-1.91-1.05a1,1,0,0,0-1,0l-1.91,1.05L21,15.82a1,1,0,0,0-.27-.86l-1.65-1.68Z"></path><rect x="12" y="23" width="12" height="2"></rect><rect x="26" y="23" width="9" height="2"></rect><rect x="12" y="27" width="23" height="2"></rect><rect x="12" y="31" width="23" height="2"></rect><rect x="12" y="35" width="16" height="2"></rect><path d="M13,45h5a1,1,0,0,0,1-1V40a1,1,0,0,0-1-1H13a1,1,0,0,0-1,1v4A1,1,0,0,0,13,45Zm1-4h3v2H14Z"></path><path d="M34,39H29a1,1,0,0,0-1,1v4a1,1,0,0,0,1,1h5a1,1,0,0,0,1-1V40A1,1,0,0,0,34,39Zm-1,4H30V41h3Z"></path><path d="M26,39H21a1,1,0,0,0-1,1v4a1,1,0,0,0,1,1h5a1,1,0,0,0,1-1V40A1,1,0,0,0,26,39Zm-1,4H22V41h3Z"></path></svg>