<svg height='100px' width='100px'  fill="#ffffff" xmlns="http://www.w3.org/2000/svg" viewBox="0 0 512 512" x="0px" y="0px"><title>Sleeping-Emoji-Emotion-Face-Expression-Feeling_1</title><path d="M424.82,307.67h-12V250.2h18.4a10,10,0,0,0,0-20h-18.4V184.33a156.82,156.82,0,0,0-3-30.54l16.54-6A10,10,0,0,0,419.62,129l-14.92,5.39a156.91,156.91,0,0,0-38.64-61.67L377,60a10,10,0,0,0-15.19-13L351,59.61a155.92,155.92,0,0,0-85-31.73V11a10,10,0,0,0-20,0V27.89a155.89,155.89,0,0,0-84.89,31.79L150.19,47A10,10,0,0,0,135,60L146,72.8a157.13,157.13,0,0,0-38.57,61.64L92.38,129a10,10,0,0,0-6.79,18.82l16.7,6a156.38,156.38,0,0,0-3,30.49V230.2H80.74a10,10,0,0,0,0,20H99.3v57.47H93.46a25.81,25.81,0,0,0-25.78,25.78v29.22a25.8,25.8,0,0,0,25.78,25.77h5.41l27.56,93.83A40.23,40.23,0,0,0,164.81,511H347.19a40.23,40.23,0,0,0,38.38-28.73l27.56-93.83h11.69a25.8,25.8,0,0,0,25.77-25.77V333.45A25.81,25.81,0,0,0,424.82,307.67ZM119.3,184.33c0-75.42,61.36-136.78,136.78-136.78,63,0,116.21,42.85,132,100.93a9.84,9.84,0,0,0,.53,2.35,5.25,5.25,0,0,0,.22.55,136.71,136.71,0,0,1,4,33v54.12a9.6,9.6,0,0,0,0,3.49v65.73H119.3Zm247.08,292.3A20.1,20.1,0,0,1,347.19,491H164.81a20.1,20.1,0,0,1-19.19-14.37l-25.91-88.19H392.29Zm64.21-114a5.77,5.77,0,0,1-5.77,5.77H93.46a5.77,5.77,0,0,1-5.78-5.77V333.45a5.78,5.78,0,0,1,5.78-5.78H424.82a5.78,5.78,0,0,1,5.77,5.78Z"></path><path d="M200.53,171H167.34a10,10,0,0,0,0,20h33.19a10,10,0,0,0,0-20Z"></path><path d="M344.66,171H311.47a10,10,0,0,0,0,20h33.19a10,10,0,0,0,0-20Z"></path><path d="M256,209.49a33.69,33.69,0,1,0,33.68,33.68A33.72,33.72,0,0,0,256,209.49Z"></path></svg>