<?xml version="1.0" encoding="UTF-8" standalone="no"?>
<svg
   xmlns:dc="http://purl.org/dc/elements/1.1/"
   xmlns:cc="http://creativecommons.org/ns#"
   xmlns:rdf="http://www.w3.org/1999/02/22-rdf-syntax-ns#"
   xmlns:svg="http://www.w3.org/2000/svg"
   xmlns="http://www.w3.org/2000/svg"
   xmlns:sodipodi="http://sodipodi.sourceforge.net/DTD/sodipodi-0.dtd"
   xmlns:inkscape="http://www.inkscape.org/namespaces/inkscape"
   height="100px"
   width="100px"
   fill="#ffffff"
   data-name="Layer 1"
   viewBox="0 0 100 100"
   x="0px"
   y="0px"
   version="1.1"
   id="svg6"
   sodipodi:docname="sleeping_moon_menu.svg"
   inkscape:version="1.0.1 (1.0.1+r73)">
  <metadata
     id="metadata12">
    <rdf:RDF>
      <cc:Work
         rdf:about="">
        <dc:format>image/svg+xml</dc:format>
        <dc:type
           rdf:resource="http://purl.org/dc/dcmitype/StillImage" />
      </cc:Work>
    </rdf:RDF>
  </metadata>
  <defs
     id="defs10" />
  <sodipodi:namedview
     pagecolor="#ffffff"
     bordercolor="#666666"
     borderopacity="1"
     objecttolerance="10"
     gridtolerance="10"
     guidetolerance="10"
     inkscape:pageopacity="0"
     inkscape:pageshadow="2"
     inkscape:window-width="1920"
     inkscape:window-height="965"
     id="namedview8"
     showgrid="false"
     inkscape:zoom="7.84"
     inkscape:cx="50"
     inkscape:cy="50"
     inkscape:window-x="0"
     inkscape:window-y="25"
     inkscape:window-maximized="1"
     inkscape:current-layer="svg6" />
  <title
     id="title2">Artboard 24</title>
  <path
     d="M 50.92,33.42 H 62.67 L 49,47.12 c -1.770833,1.75457 -0.492324,4.771853 2,4.72 h 18.34 c 3.915142,0.235557 3.915142,-5.765557 0,-5.53 H 57.59 L 71.3,32.61 c 1.744534,-1.759693 0.477711,-4.749395 -2,-4.72 H 50.92 c -3.471522,0.208866 -3.471522,5.321134 0,5.53 z m 25.8,-23 h 9 L 74.76,21.33 c -1.744534,1.759693 -0.477711,4.749395 2,4.72 h 15.62 c 3.471522,-0.208866 3.471522,-5.321134 0,-5.53 h -9 L 94.33,9.58 c 1.770833,-1.7545699 0.492324,-4.7718527 -2,-4.72 H 76.72 c -3.915142,-0.2355571 -3.915142,5.765557 0,5.53 z M 42.85,64.52 C 33.843794,55.559189 28.80171,43.364549 28.85,30.66 28.840408,24.678999 29.942452,18.748302 32.1,13.17 5.8017805,23.226794 -3.5595677,55.657913 13.333678,78.182241 30.226924,100.70657 63.981976,100.80039 81,78.37 79.57,78.5 78.13,78.55 76.71,78.55 64.001111,78.590357 51.805855,73.537213 42.85,64.52 Z M 94.91,36.91 C 94.465064,35.909866 93.474633,35.263933 92.38,35.26 H 82.24 c -3.471522,0.208866 -3.471522,5.321134 0,5.53 h 3.85 l -5.89,6.42 c -1.61294,1.762029 -0.3885,4.60273 2,4.64 h 9.89 c 3.915142,0.235557 3.915142,-5.765557 0,-5.53 h -3.57 l 5.89,-6.43 c 0.743907,-0.805781 0.940177,-1.975547 0.5,-2.98 z"
     id="path4"
     style="fill:#ffffff"
     sodipodi:nodetypes="ccccccccccccccccccccccccccsccccccccccccccc" />
</svg>
