<svg height='100px' width='100px'  fill="#645394" xmlns="http://www.w3.org/2000/svg" xmlns:xlink="http://www.w3.org/1999/xlink" viewBox="0 0 41 44" version="1.1" x="0px" y="0px"><title>exit</title><desc>Created with Sketch.</desc><g stroke="none" stroke-width="1" fill="none" fill-rule="evenodd"><g transform="translate(-786.000000, -306.000000)" fill="#645394"><g transform="translate(782.000000, 303.000000)"><g transform="translate(4.000000, 3.000000)"><rect x="0" y="0" width="4" height="44" rx="2"></rect><path d="M2.00494659,4 C0.897645164,4 0,3.11227036 0,2 C0,0.8954305 0.897026226,0 2.00494659,0 L21.9950534,1.77635684e-15 C23.1023548,1.77635684e-15 24,0.887729645 24,2 C24,3.1045695 23.1029738,4 21.9950534,4 L2.00494659,4 Z"></path><rect transform="translate(12.000000, 42.000000) rotate(-90.000000) translate(-12.000000, -42.000000) " x="10" y="30" width="4" height="24" rx="2"></rect><path d="M10.9932874,24 C9.89242519,24 9,23.1122704 9,22 C9,20.8954305 9.89971268,20 10.9932874,20 L36.0067126,20 C37.1075748,20 38,20.8877296 38,22 C38,23.1045695 37.1002873,24 36.0067126,24 L10.9932874,24 Z"></path><path d="M36,31 L22,31 C20.8954305,31 20,30.1045695 20,29 C20,27.8954305 20.8954305,27 22,27 L34,27 L34,15 C34,13.8954305 34.8954305,13 36,13 C37.1045695,13 38,13.8954305 38,15 L38,29 C38,30.1045695 37.1045695,31 36,31 Z" transform="translate(29.000000, 22.000000) rotate(-45.000000) translate(-29.000000, -22.000000) "></path></g></g></g></g></svg>