<?xml version="1.0" encoding="UTF-8" standalone="no"?>
<!-- Created with Inkscape (http://www.inkscape.org/) -->

<svg
   xmlns:dc="http://purl.org/dc/elements/1.1/"
   xmlns:cc="http://creativecommons.org/ns#"
   xmlns:rdf="http://www.w3.org/1999/02/22-rdf-syntax-ns#"
   xmlns:svg="http://www.w3.org/2000/svg"
   xmlns="http://www.w3.org/2000/svg"
   xmlns:sodipodi="http://sodipodi.sourceforge.net/DTD/sodipodi-0.dtd"
   xmlns:inkscape="http://www.inkscape.org/namespaces/inkscape"
   width="79.899414mm"
   height="66.541824mm"
   viewBox="0 0 79.899414 66.541824"
   version="1.1"
   id="svg1275"
   inkscape:version="0.92.5 (2060ec1f9f, 2020-04-08)"
   sodipodi:docname="sleeptracker-logo-square.svg">
  <defs
     id="defs1269" />
  <sodipodi:namedview
     id="base"
     pagecolor="#ffffff"
     bordercolor="#666666"
     borderopacity="1.0"
     inkscape:pageopacity="0.0"
     inkscape:pageshadow="2"
     inkscape:zoom="0.98994949"
     inkscape:cx="10.166421"
     inkscape:cy="-48.729723"
     inkscape:document-units="mm"
     inkscape:current-layer="layer1"
     showgrid="false"
     inkscape:window-width="1920"
     inkscape:window-height="965"
     inkscape:window-x="0"
     inkscape:window-y="25"
     inkscape:window-maximized="1" />
  <metadata
     id="metadata1272">
    <rdf:RDF>
      <cc:Work
         rdf:about="">
        <dc:format>image/svg+xml</dc:format>
        <dc:type
           rdf:resource="http://purl.org/dc/dcmitype/StillImage" />
        <dc:title></dc:title>
      </cc:Work>
    </rdf:RDF>
  </metadata>
  <g
     inkscape:label="Layer 1"
     inkscape:groupmode="layer"
     id="layer1"
     transform="translate(-34.889579,-39.967183)">
    <g
       id="g1217"
       transform="matrix(0.26458333,0,0,0.26458333,15.9314,40.296148)">
      <path
         style="fill:#645394"
         inkscape:connector-curvature="0"
         id="path28"
         d="m 73.309,236.794 c 0.078,0 0.134,0.012 0.169,0.034 0.035,0.023 0.068,0.062 0.1,0.117 l 3.413,6.268 c 0.023,0.055 0.07,0.082 0.14,0.082 h 0.059 c 0.055,0 0.097,-0.027 0.128,-0.082 l 3.367,-6.268 c 0.047,-0.102 0.136,-0.151 0.269,-0.151 h 1.525 c 0.094,0 0.149,0.025 0.169,0.075 0.02,0.051 0.01,0.115 -0.028,0.192 l -3.822,7.002 c -0.194,0.357 -0.384,0.595 -0.57,0.711 -0.186,0.116 -0.404,0.175 -0.652,0.175 H 76.9 c -0.303,0 -0.554,-0.059 -0.752,-0.175 -0.198,-0.116 -0.395,-0.354 -0.588,-0.711 l -3.868,-7.002 c -0.039,-0.077 -0.049,-0.142 -0.029,-0.192 0.02,-0.05 0.079,-0.075 0.181,-0.075 z" />
      <path
         style="fill:#645394"
         inkscape:connector-curvature="0"
         id="path30"
         d="m 87.465,236.794 c 0.171,0 0.257,0.085 0.257,0.256 v 7.644 c 0,0.171 -0.086,0.256 -0.257,0.256 h -1.258 c -0.179,0 -0.269,-0.085 -0.269,-0.256 v -7.644 c 0,-0.171 0.09,-0.256 0.269,-0.256 z" />
      <path
         style="fill:#645394"
         inkscape:connector-curvature="0"
         id="path32"
         d="m 99.698,236.794 c 0.171,0 0.257,0.085 0.257,0.256 v 1.106 c 0,0.172 -0.086,0.257 -0.257,0.257 h -5.837 c -0.226,0 -0.385,0.059 -0.478,0.175 -0.094,0.116 -0.14,0.275 -0.14,0.478 v 0.396 c 0,0.435 0.201,0.652 0.605,0.652 h 4.369 c 0.676,0 1.185,0.173 1.526,0.519 0.341,0.346 0.513,0.841 0.513,1.485 v 0.932 c 0,0.567 -0.167,1.025 -0.501,1.375 -0.334,0.35 -0.854,0.524 -1.562,0.524 h -6.454 c -0.179,0 -0.269,-0.085 -0.269,-0.256 v -1.107 c 0,-0.171 0.09,-0.256 0.269,-0.256 h 6.116 c 0.226,0 0.385,-0.059 0.478,-0.175 0.094,-0.117 0.14,-0.276 0.14,-0.478 V 242.2 c 0,-0.435 -0.201,-0.652 -0.605,-0.652 H 93.5 c -0.676,0 -1.185,-0.173 -1.526,-0.519 -0.342,-0.345 -0.513,-0.84 -0.513,-1.485 v -0.851 c 0,-0.566 0.167,-1.025 0.501,-1.375 0.334,-0.349 0.854,-0.523 1.562,-0.523 h 6.174 z" />
      <path
         style="fill:#645394"
         inkscape:connector-curvature="0"
         id="path34"
         d="m 105.419,236.794 c 0.171,0 0.257,0.085 0.257,0.256 v 4.648 c 0,0.312 0.025,0.569 0.075,0.775 0.051,0.206 0.135,0.369 0.251,0.489 0.116,0.12 0.273,0.206 0.472,0.256 0.198,0.051 0.449,0.076 0.752,0.076 h 3.227 c 0.304,0 0.554,-0.025 0.752,-0.076 0.198,-0.05 0.355,-0.136 0.472,-0.256 0.117,-0.12 0.198,-0.283 0.245,-0.489 0.046,-0.206 0.069,-0.464 0.069,-0.775 v -4.648 c 0,-0.171 0.086,-0.256 0.257,-0.256 h 1.27 c 0.171,0 0.257,0.085 0.257,0.256 v 4.823 c 0,0.56 -0.059,1.035 -0.175,1.428 -0.117,0.393 -0.306,0.711 -0.565,0.955 -0.26,0.245 -0.598,0.422 -1.014,0.53 -0.415,0.108 -0.919,0.163 -1.509,0.163 h -3.355 c -0.59,0 -1.091,-0.055 -1.503,-0.163 -0.412,-0.108 -0.748,-0.285 -1.008,-0.53 -0.26,-0.244 -0.45,-0.562 -0.571,-0.955 -0.12,-0.393 -0.18,-0.868 -0.18,-1.428 v -4.823 c 0,-0.171 0.089,-0.256 0.268,-0.256 z" />
      <path
         style="fill:#645394"
         inkscape:connector-curvature="0"
         id="path36"
         d="m 122.337,236.794 c 0.295,0 0.543,0.06 0.745,0.181 0.202,0.12 0.4,0.354 0.595,0.704 l 3.856,7.003 c 0.038,0.077 0.048,0.142 0.028,0.191 -0.02,0.051 -0.075,0.076 -0.169,0.076 h -1.479 c -0.132,0 -0.221,-0.051 -0.268,-0.151 l -0.827,-1.503 h -5.477 l -0.804,1.503 c -0.055,0.101 -0.144,0.151 -0.268,0.151 h -1.515 c -0.102,0 -0.161,-0.025 -0.181,-0.076 -0.02,-0.05 -0.01,-0.114 0.029,-0.191 l 3.821,-7.003 c 0.194,-0.35 0.385,-0.584 0.571,-0.704 0.186,-0.121 0.403,-0.181 0.652,-0.181 z m -2.261,5.15 h 4.008 l -1.853,-3.414 c -0.031,-0.054 -0.073,-0.081 -0.128,-0.081 h -0.07 c -0.054,0 -0.097,0.027 -0.128,0.081 z" />
      <path
         style="fill:#645394"
         inkscape:connector-curvature="0"
         id="path38"
         d="m 131.89,236.794 c 0.171,0 0.257,0.085 0.257,0.256 v 4.648 c 0,0.312 0.025,0.569 0.075,0.775 0.051,0.206 0.135,0.369 0.251,0.489 0.116,0.12 0.273,0.206 0.472,0.256 0.198,0.051 0.449,0.076 0.752,0.076 h 4.719 c 0.17,0 0.256,0.085 0.256,0.256 v 1.143 c 0,0.171 -0.086,0.256 -0.256,0.256 h -4.789 c -0.59,0 -1.091,-0.055 -1.503,-0.163 -0.412,-0.108 -0.748,-0.285 -1.008,-0.53 -0.26,-0.244 -0.45,-0.562 -0.571,-0.955 -0.12,-0.393 -0.18,-0.868 -0.18,-1.428 v -4.823 c 0,-0.171 0.089,-0.256 0.268,-0.256 z" />
      <path
         style="fill:#645394"
         inkscape:connector-curvature="0"
         id="path40"
         d="m 143.576,236.794 c 0.171,0 0.257,0.085 0.257,0.256 v 7.644 c 0,0.171 -0.086,0.256 -0.257,0.256 h -1.258 c -0.179,0 -0.269,-0.085 -0.269,-0.256 v -7.644 c 0,-0.171 0.09,-0.256 0.269,-0.256 z" />
      <path
         style="fill:#645394"
         inkscape:connector-curvature="0"
         id="path42"
         d="m 155.379,236.794 c 0.613,0 0.92,0.295 0.92,0.885 v 1.061 c 0,0.14 -0.01,0.259 -0.029,0.355 -0.019,0.096 -0.05,0.183 -0.093,0.256 -0.043,0.074 -0.101,0.139 -0.175,0.192 -0.074,0.055 -0.169,0.113 -0.285,0.175 l -6.164,3.251 c -0.069,0.039 -0.104,0.097 -0.104,0.175 v 0.081 c 0,0.07 0.039,0.105 0.116,0.105 h 6.396 c 0.179,0 0.269,0.085 0.269,0.256 v 1.107 c 0,0.171 -0.09,0.256 -0.269,0.256 h -7.538 c -0.326,0 -0.562,-0.071 -0.705,-0.216 -0.144,-0.144 -0.215,-0.362 -0.215,-0.658 v -1.06 c 0,-0.141 0.007,-0.259 0.023,-0.355 0.015,-0.098 0.042,-0.183 0.081,-0.257 0.039,-0.073 0.093,-0.138 0.163,-0.192 0.07,-0.054 0.163,-0.112 0.279,-0.175 l 6.141,-3.262 c 0.069,-0.039 0.104,-0.098 0.104,-0.175 v -0.082 c 0,-0.069 -0.039,-0.104 -0.116,-0.104 h -6.338 c -0.179,0 -0.269,-0.085 -0.269,-0.257 v -1.106 c 0,-0.171 0.09,-0.256 0.269,-0.256 z" />
      <path
         style="fill:#645394"
         inkscape:connector-curvature="0"
         id="path44"
         d="m 168.066,236.794 c 0.179,0 0.268,0.085 0.268,0.256 v 1.106 c 0,0.172 -0.089,0.257 -0.268,0.257 h -5.092 c -0.303,0 -0.553,0.025 -0.751,0.076 -0.198,0.05 -0.357,0.136 -0.478,0.256 -0.121,0.12 -0.204,0.283 -0.251,0.489 -0.047,0.206 -0.069,0.46 -0.069,0.764 v 0.116 h 6.582 c 0.171,0 0.257,0.085 0.257,0.256 v 0.921 c 0,0.171 -0.086,0.256 -0.257,0.256 h -6.582 v 0.198 c 0,0.303 0.022,0.558 0.069,0.764 0.047,0.205 0.13,0.368 0.251,0.489 0.12,0.12 0.279,0.205 0.478,0.256 0.199,0.051 0.448,0.076 0.751,0.076 h 5.092 c 0.179,0 0.268,0.085 0.268,0.256 v 1.107 c 0,0.171 -0.089,0.256 -0.268,0.256 h -5.126 c -0.591,0 -1.092,-0.055 -1.504,-0.163 -0.411,-0.108 -0.747,-0.285 -1.008,-0.53 -0.26,-0.244 -0.45,-0.562 -0.57,-0.955 -0.121,-0.393 -0.181,-0.868 -0.181,-1.428 v -2.004 c 0,-0.559 0.06,-1.032 0.181,-1.421 0.12,-0.389 0.311,-0.705 0.57,-0.95 0.261,-0.244 0.597,-0.423 1.008,-0.535 0.412,-0.113 0.913,-0.169 1.504,-0.169 z" />
      <path
         style="fill:#645394"
         inkscape:connector-curvature="0"
         id="path46"
         d="m 179.309,236.794 c 0.124,0 0.218,0.046 0.279,0.14 l 3.111,4.206 3.134,-4.206 c 0.062,-0.094 0.155,-0.14 0.279,-0.14 h 1.526 c 0.062,0 0.105,0.025 0.129,0.075 0.022,0.051 0.015,0.104 -0.023,0.157 l -4.183,5.43 v 2.237 c 0,0.171 -0.086,0.256 -0.257,0.256 h -1.258 c -0.179,0 -0.269,-0.085 -0.269,-0.256 v -2.237 l -4.136,-5.43 c -0.039,-0.054 -0.049,-0.106 -0.029,-0.157 0.02,-0.05 0.064,-0.075 0.134,-0.075 z" />
      <path
         style="fill:#645394"
         inkscape:connector-curvature="0"
         id="path48"
         d="m 197.193,236.794 c 0.59,0 1.093,0.056 1.509,0.169 0.415,0.112 0.753,0.291 1.014,0.535 0.26,0.245 0.448,0.562 0.565,0.95 0.116,0.389 0.175,0.862 0.175,1.421 v 2.004 c 0,0.56 -0.059,1.035 -0.175,1.428 -0.117,0.393 -0.306,0.711 -0.565,0.955 -0.261,0.245 -0.599,0.422 -1.014,0.53 -0.416,0.108 -0.919,0.163 -1.509,0.163 h -3.6 c -0.591,0 -1.092,-0.055 -1.504,-0.163 -0.411,-0.108 -0.747,-0.285 -1.008,-0.53 -0.26,-0.244 -0.45,-0.562 -0.57,-0.955 -0.121,-0.393 -0.181,-0.868 -0.181,-1.428 v -2.004 c 0,-0.559 0.06,-1.032 0.181,-1.421 0.12,-0.389 0.311,-0.705 0.57,-0.95 0.261,-0.244 0.597,-0.423 1.008,-0.535 0.412,-0.113 0.913,-0.169 1.504,-0.169 z m -5.08,4.951 c 0,0.303 0.025,0.558 0.076,0.764 0.051,0.205 0.134,0.368 0.25,0.489 0.117,0.12 0.274,0.205 0.473,0.256 0.197,0.051 0.448,0.076 0.751,0.076 h 3.46 c 0.304,0 0.554,-0.025 0.752,-0.076 0.198,-0.051 0.355,-0.136 0.472,-0.256 0.117,-0.121 0.2,-0.284 0.251,-0.489 0.05,-0.206 0.075,-0.461 0.075,-0.764 v -1.747 c 0,-0.304 -0.025,-0.558 -0.075,-0.764 -0.051,-0.206 -0.134,-0.369 -0.251,-0.489 -0.116,-0.12 -0.273,-0.206 -0.472,-0.256 -0.198,-0.051 -0.448,-0.076 -0.752,-0.076 h -3.46 c -0.303,0 -0.554,0.025 -0.751,0.076 -0.198,0.05 -0.355,0.136 -0.473,0.256 -0.116,0.12 -0.199,0.283 -0.25,0.489 -0.051,0.206 -0.076,0.46 -0.076,0.764 z" />
      <path
         style="fill:#645394"
         inkscape:connector-curvature="0"
         id="path50"
         d="m 205.733,236.794 c 0.171,0 0.257,0.085 0.257,0.256 v 4.648 c 0,0.312 0.025,0.569 0.075,0.775 0.051,0.206 0.135,0.369 0.251,0.489 0.116,0.12 0.273,0.206 0.472,0.256 0.198,0.051 0.449,0.076 0.752,0.076 h 3.227 c 0.304,0 0.554,-0.025 0.752,-0.076 0.198,-0.05 0.355,-0.136 0.472,-0.256 0.117,-0.12 0.198,-0.283 0.245,-0.489 0.046,-0.206 0.069,-0.464 0.069,-0.775 v -4.648 c 0,-0.171 0.086,-0.256 0.257,-0.256 h 1.27 c 0.171,0 0.257,0.085 0.257,0.256 v 4.823 c 0,0.56 -0.059,1.035 -0.175,1.428 -0.117,0.393 -0.306,0.711 -0.565,0.955 -0.26,0.245 -0.598,0.422 -1.014,0.53 -0.415,0.108 -0.919,0.163 -1.509,0.163 h -3.355 c -0.59,0 -1.091,-0.055 -1.503,-0.163 -0.412,-0.108 -0.748,-0.285 -1.008,-0.53 -0.26,-0.244 -0.45,-0.562 -0.571,-0.955 -0.12,-0.393 -0.18,-0.868 -0.18,-1.428 v -4.823 c 0,-0.171 0.089,-0.256 0.268,-0.256 z" />
      <path
         style="fill:#645394"
         inkscape:connector-curvature="0"
         id="path52"
         d="m 224.55,236.794 c 0.894,0 1.534,0.202 1.923,0.605 0.388,0.404 0.582,1.002 0.582,1.794 v 0.664 c 0,0.668 -0.136,1.196 -0.407,1.585 -0.272,0.389 -0.715,0.637 -1.329,0.745 l 1.993,2.471 c 0.038,0.039 0.05,0.097 0.034,0.175 -0.016,0.077 -0.077,0.116 -0.187,0.116 h -1.503 c -0.101,0 -0.171,-0.012 -0.209,-0.035 -0.039,-0.023 -0.078,-0.062 -0.117,-0.116 l -1.841,-2.424 h -3.763 v 2.319 c 0,0.171 -0.086,0.256 -0.257,0.256 h -1.258 c -0.179,0 -0.269,-0.085 -0.269,-0.256 v -7.55 c 0,-0.233 0.117,-0.35 0.35,-0.35 h 6.258 z m -4.824,4.16 h 4.462 c 0.396,0 0.676,-0.086 0.839,-0.257 0.163,-0.171 0.245,-0.431 0.245,-0.78 v -0.489 c 0,-0.35 -0.082,-0.609 -0.245,-0.78 -0.163,-0.171 -0.442,-0.257 -0.839,-0.257 h -4.311 c -0.102,0 -0.151,0.047 -0.151,0.14 z" />
      <path
         style="fill:#645394"
         inkscape:connector-curvature="0"
         id="path54"
         d="m 245.148,236.794 c 0.171,0 0.257,0.085 0.257,0.256 v 1.106 c 0,0.172 -0.086,0.257 -0.257,0.257 h -5.837 c -0.226,0 -0.385,0.059 -0.478,0.175 -0.094,0.116 -0.14,0.275 -0.14,0.478 v 0.396 c 0,0.435 0.201,0.652 0.605,0.652 h 4.369 c 0.676,0 1.185,0.173 1.526,0.519 0.341,0.346 0.513,0.841 0.513,1.485 v 0.932 c 0,0.567 -0.167,1.025 -0.501,1.375 -0.334,0.35 -0.854,0.524 -1.562,0.524 h -6.454 c -0.179,0 -0.269,-0.085 -0.269,-0.256 v -1.107 c 0,-0.171 0.09,-0.256 0.269,-0.256 h 6.116 c 0.226,0 0.385,-0.059 0.478,-0.175 0.094,-0.117 0.14,-0.276 0.14,-0.478 V 242.2 c 0,-0.435 -0.201,-0.652 -0.605,-0.652 h -4.369 c -0.676,0 -1.185,-0.173 -1.526,-0.519 -0.342,-0.345 -0.513,-0.84 -0.513,-1.485 v -0.851 c 0,-0.566 0.167,-1.025 0.501,-1.375 0.334,-0.349 0.854,-0.523 1.562,-0.523 h 6.175 z" />
      <path
         style="fill:#645394"
         inkscape:connector-curvature="0"
         id="path56"
         d="m 250.868,236.794 c 0.171,0 0.257,0.085 0.257,0.256 v 4.648 c 0,0.312 0.025,0.569 0.075,0.775 0.051,0.206 0.135,0.369 0.251,0.489 0.116,0.12 0.273,0.206 0.472,0.256 0.198,0.051 0.449,0.076 0.752,0.076 h 4.719 c 0.17,0 0.256,0.085 0.256,0.256 v 1.143 c 0,0.171 -0.086,0.256 -0.256,0.256 h -4.789 c -0.59,0 -1.091,-0.055 -1.503,-0.163 -0.412,-0.108 -0.748,-0.285 -1.008,-0.53 -0.26,-0.244 -0.45,-0.562 -0.571,-0.955 -0.12,-0.393 -0.18,-0.868 -0.18,-1.428 v -4.823 c 0,-0.171 0.089,-0.256 0.268,-0.256 z" />
      <path
         style="fill:#645394"
         inkscape:connector-curvature="0"
         id="path58"
         d="m 269.324,236.794 c 0.179,0 0.268,0.085 0.268,0.256 v 1.106 c 0,0.172 -0.089,0.257 -0.268,0.257 h -5.092 c -0.303,0 -0.553,0.025 -0.751,0.076 -0.198,0.05 -0.357,0.136 -0.478,0.256 -0.121,0.12 -0.204,0.283 -0.251,0.489 -0.047,0.206 -0.069,0.46 -0.069,0.764 v 0.116 h 6.582 c 0.171,0 0.257,0.085 0.257,0.256 v 0.921 c 0,0.171 -0.086,0.256 -0.257,0.256 h -6.582 v 0.198 c 0,0.303 0.022,0.558 0.069,0.764 0.047,0.205 0.13,0.368 0.251,0.489 0.12,0.12 0.279,0.205 0.478,0.256 0.199,0.051 0.448,0.076 0.751,0.076 h 5.092 c 0.179,0 0.268,0.085 0.268,0.256 v 1.107 c 0,0.171 -0.089,0.256 -0.268,0.256 h -5.126 c -0.591,0 -1.092,-0.055 -1.504,-0.163 -0.411,-0.108 -0.747,-0.285 -1.008,-0.53 -0.26,-0.244 -0.45,-0.562 -0.57,-0.955 -0.121,-0.393 -0.181,-0.868 -0.181,-1.428 v -2.004 c 0,-0.559 0.06,-1.032 0.181,-1.421 0.12,-0.389 0.311,-0.705 0.57,-0.95 0.261,-0.244 0.597,-0.423 1.008,-0.535 0.412,-0.113 0.913,-0.169 1.504,-0.169 z" />
      <path
         style="fill:#645394"
         inkscape:connector-curvature="0"
         id="path60"
         d="m 281.557,236.794 c 0.179,0 0.268,0.085 0.268,0.256 v 1.106 c 0,0.172 -0.089,0.257 -0.268,0.257 h -5.092 c -0.303,0 -0.553,0.025 -0.751,0.076 -0.198,0.05 -0.357,0.136 -0.478,0.256 -0.121,0.12 -0.204,0.283 -0.251,0.489 -0.047,0.206 -0.069,0.46 -0.069,0.764 v 0.116 h 6.582 c 0.171,0 0.257,0.085 0.257,0.256 v 0.921 c 0,0.171 -0.086,0.256 -0.257,0.256 h -6.582 v 0.198 c 0,0.303 0.022,0.558 0.069,0.764 0.047,0.205 0.13,0.368 0.251,0.489 0.12,0.12 0.279,0.205 0.478,0.256 0.199,0.051 0.448,0.076 0.751,0.076 h 5.092 c 0.179,0 0.268,0.085 0.268,0.256 v 1.107 c 0,0.171 -0.089,0.256 -0.268,0.256 h -5.126 c -0.591,0 -1.092,-0.055 -1.504,-0.163 -0.411,-0.108 -0.747,-0.285 -1.008,-0.53 -0.26,-0.244 -0.45,-0.562 -0.57,-0.955 -0.121,-0.393 -0.181,-0.868 -0.181,-1.428 v -2.004 c 0,-0.559 0.06,-1.032 0.181,-1.421 0.12,-0.389 0.311,-0.705 0.57,-0.95 0.261,-0.244 0.597,-0.423 1.008,-0.535 0.412,-0.113 0.913,-0.169 1.504,-0.169 z" />
      <path
         style="fill:#645394"
         inkscape:connector-curvature="0"
         id="path62"
         d="m 292.101,236.794 c 0.894,0 1.534,0.202 1.923,0.605 0.388,0.404 0.582,1.002 0.582,1.794 v 0.862 c 0,0.792 -0.194,1.391 -0.582,1.794 -0.389,0.404 -1.029,0.606 -1.923,0.606 h -4.823 v 2.237 c 0,0.171 -0.086,0.256 -0.257,0.256 h -1.258 c -0.179,0 -0.269,-0.085 -0.269,-0.256 v -7.55 c 0,-0.233 0.117,-0.35 0.35,-0.35 h 6.257 z m -4.823,4.124 h 4.462 c 0.396,0 0.676,-0.085 0.839,-0.256 0.163,-0.171 0.245,-0.432 0.245,-0.781 v -0.442 c 0,-0.35 -0.082,-0.609 -0.245,-0.781 -0.163,-0.17 -0.442,-0.256 -0.839,-0.256 h -4.311 c -0.102,0 -0.151,0.047 -0.151,0.14 z" />
      <path
         style="fill:#645394"
         inkscape:connector-curvature="0"
         id="path64"
         d="m 305.848,236.794 c 0.171,0 0.257,0.085 0.257,0.256 v 3.029 h 5.452 v -3.029 c 0,-0.171 0.086,-0.256 0.257,-0.256 h 1.258 c 0.179,0 0.269,0.085 0.269,0.256 v 7.644 c 0,0.171 -0.09,0.256 -0.269,0.256 h -1.258 c -0.171,0 -0.257,-0.085 -0.257,-0.256 v -3.1 h -5.452 v 3.1 c 0,0.171 -0.086,0.256 -0.257,0.256 h -1.258 c -0.179,0 -0.269,-0.085 -0.269,-0.256 v -7.644 c 0,-0.171 0.09,-0.256 0.269,-0.256 z" />
      <path
         style="fill:#645394"
         inkscape:connector-curvature="0"
         id="path66"
         d="m 325.504,236.794 c 0.179,0 0.268,0.085 0.268,0.256 v 1.106 c 0,0.172 -0.089,0.257 -0.268,0.257 h -5.092 c -0.303,0 -0.553,0.025 -0.751,0.076 -0.198,0.05 -0.357,0.136 -0.478,0.256 -0.121,0.12 -0.204,0.283 -0.251,0.489 -0.047,0.206 -0.069,0.46 -0.069,0.764 v 0.116 h 6.582 c 0.171,0 0.257,0.085 0.257,0.256 v 0.921 c 0,0.171 -0.086,0.256 -0.257,0.256 h -6.582 v 0.198 c 0,0.303 0.022,0.558 0.069,0.764 0.047,0.205 0.13,0.368 0.251,0.489 0.12,0.12 0.279,0.205 0.478,0.256 0.199,0.051 0.448,0.076 0.751,0.076 h 5.092 c 0.179,0 0.268,0.085 0.268,0.256 v 1.107 c 0,0.171 -0.089,0.256 -0.268,0.256 h -5.126 c -0.591,0 -1.092,-0.055 -1.504,-0.163 -0.411,-0.108 -0.747,-0.285 -1.008,-0.53 -0.26,-0.244 -0.45,-0.562 -0.57,-0.955 -0.121,-0.393 -0.181,-0.868 -0.181,-1.428 v -2.004 c 0,-0.559 0.06,-1.032 0.181,-1.421 0.12,-0.389 0.311,-0.705 0.57,-0.95 0.261,-0.244 0.597,-0.423 1.008,-0.535 0.412,-0.113 0.913,-0.169 1.504,-0.169 z" />
      <path
         style="fill:#645394"
         inkscape:connector-curvature="0"
         id="path68"
         d="m 334.615,236.794 c 0.295,0 0.543,0.06 0.745,0.181 0.202,0.12 0.4,0.354 0.595,0.704 l 3.856,7.003 c 0.038,0.077 0.048,0.142 0.028,0.191 -0.02,0.051 -0.075,0.076 -0.169,0.076 h -1.479 c -0.132,0 -0.221,-0.051 -0.268,-0.151 l -0.827,-1.503 h -5.477 l -0.804,1.503 c -0.055,0.101 -0.144,0.151 -0.268,0.151 h -1.515 c -0.102,0 -0.161,-0.025 -0.181,-0.076 -0.02,-0.05 -0.01,-0.114 0.029,-0.191 l 3.821,-7.003 c 0.194,-0.35 0.385,-0.584 0.571,-0.704 0.186,-0.121 0.403,-0.181 0.652,-0.181 z m -2.261,5.15 h 4.008 l -1.853,-3.414 c -0.031,-0.054 -0.073,-0.081 -0.128,-0.081 h -0.07 c -0.054,0 -0.097,0.027 -0.128,0.081 z" />
      <path
         style="fill:#645394"
         inkscape:connector-curvature="0"
         id="path70"
         d="m 344.168,236.794 c 0.171,0 0.257,0.085 0.257,0.256 v 4.648 c 0,0.312 0.025,0.569 0.075,0.775 0.051,0.206 0.135,0.369 0.251,0.489 0.116,0.12 0.273,0.206 0.472,0.256 0.198,0.051 0.449,0.076 0.752,0.076 h 4.719 c 0.17,0 0.256,0.085 0.256,0.256 v 1.143 c 0,0.171 -0.086,0.256 -0.256,0.256 h -4.789 c -0.59,0 -1.091,-0.055 -1.503,-0.163 -0.412,-0.108 -0.748,-0.285 -1.008,-0.53 -0.26,-0.244 -0.45,-0.562 -0.571,-0.955 -0.12,-0.393 -0.18,-0.868 -0.18,-1.428 v -4.823 c 0,-0.171 0.089,-0.256 0.268,-0.256 z" />
      <path
         style="fill:#645394"
         inkscape:connector-curvature="0"
         id="path72"
         d="m 360.981,236.794 c 0.178,0 0.268,0.085 0.268,0.256 v 1.142 c 0,0.179 -0.09,0.269 -0.268,0.269 h -3.659 v 6.233 c 0,0.171 -0.085,0.256 -0.256,0.256 h -1.271 c -0.171,0 -0.256,-0.085 -0.256,-0.256 v -6.233 h -3.658 c -0.179,0 -0.269,-0.09 -0.269,-0.269 v -1.142 c 0,-0.171 0.09,-0.256 0.269,-0.256 z" />
      <path
         style="fill:#645394"
         inkscape:connector-curvature="0"
         id="path74"
         d="m 366.142,236.794 c 0.171,0 0.257,0.085 0.257,0.256 v 3.029 h 5.452 v -3.029 c 0,-0.171 0.086,-0.256 0.257,-0.256 h 1.258 c 0.179,0 0.269,0.085 0.269,0.256 v 7.644 c 0,0.171 -0.09,0.256 -0.269,0.256 h -1.258 c -0.171,0 -0.257,-0.085 -0.257,-0.256 v -3.1 h -5.452 v 3.1 c 0,0.171 -0.086,0.256 -0.257,0.256 h -1.258 c -0.179,0 -0.269,-0.085 -0.269,-0.256 v -7.644 c 0,-0.171 0.09,-0.256 0.269,-0.256 z" />
    </g>
    <text
       xml:space="preserve"
       style="font-style:normal;font-weight:normal;font-size:10.58333302px;line-height:1.25;font-family:sans-serif;letter-spacing:0px;word-spacing:0px;fill:#000000;fill-opacity:1;stroke:none;stroke-width:0.26458332"
       x="34.460426"
       y="100.06023"
       id="text84"><tspan
         sodipodi:role="line"
         id="tspan82"
         x="34.460426"
         y="100.06023"
         style="font-style:normal;font-variant:normal;font-weight:normal;font-stretch:normal;font-size:14.11111069px;font-family:Pacifico;-inkscape-font-specification:Pacifico;fill:#645394;fill-opacity:0;stroke-width:0.26458332">SleepTracker</tspan></text>
    <g
       id="g271"
       transform="matrix(0.26458333,0,0,0.26458333,16.21625,32.44133)">
      <path
         d="m 287.084,104.009 h 3.291 c 1.657,0 3,-1.343 3,-3 0,-1.657 -1.343,-3 -3,-3 h -3.291 -5.926 -40.281 c -1.337,0 -2.513,0.885 -2.883,2.17 l -4.008,13.92 -8.416,-38.671 c -0.291,-1.337 -1.451,-2.308 -2.818,-2.36 -1.374,-0.056 -2.598,0.83 -2.988,2.141 l -9.638,32.336 -3.641,-7.804 c -0.493,-1.057 -1.553,-1.732 -2.719,-1.732 h -50.679 c -1.657,0 -3,1.343 -3,3 0,1.657 1.343,3 3,3 h 48.768 l 6.171,13.229 c 0.526,1.129 1.71,1.82 2.938,1.724 1.243,-0.091 2.3,-0.941 2.655,-2.135 l 8.565,-28.737 8.465,38.896 c 0.292,1.342 1.459,2.315 2.833,2.36 0.033,0.001 0.066,0.001 0.1,0.001 1.332,0 2.511,-0.882 2.882,-2.17 l 6.67,-23.168 h 34.94"
         id="path78"
         inkscape:connector-curvature="0"
         style="fill:#645394" />
      <path
         d="m 189.26,42.905 c 1.238,-0.69 2.389,-1.281 3.3,-1.737 -1.17,0.555 -2.306,1.164 -3.3,1.737 z"
         id="path86"
         inkscape:connector-curvature="0"
         style="fill:#645394" />
      <path
         style="fill:none"
         inkscape:connector-curvature="0"
         id="path88"
         d="m 285.279,71.133 c 1.73,3.597 3.148,7.338 4.239,11.181 0.868,3.892 -0.659,0.172 -1.092,0.31 -0.501,-1.901 -1.183,-3.745 -1.695,-5.122 -0.566,-1.359 -0.978,-2.247 -1.083,-2.204 -0.209,0.087 -0.629,0.261 -0.839,0.348 0.72,1.786 1.768,4.49 2.523,7.286 0.269,0.904 0.503,1.814 0.712,2.698 h 2.982 c -0.453,-1.445 -0.981,-3.05 -1.614,-4.849 -1.055,-2.821 -2.35,-6.074 -4.133,-9.648 z" />
      <path
         sodipodi:nodetypes="ccccccccccccccccccccccccccccccccccccccccccccc"
         style="fill:#645394;stroke-width:1.00270927"
         inkscape:connector-curvature="0"
         id="path90"
         d="m 294.44501,104.00301 c -0.46506,9.42563 -2.22127,21.23918 -4.16576,25.67018 -3.7613,8.602 -9.21272,16.448 -15.92796,22.995 -6.71021,6.552 -14.68626,11.807 -23.36509,15.374 -8.6718,3.584 -18.0474,5.445 -27.39183,5.495 -9.34141,0.074 -18.70594,-1.627 -27.38679,-5.031 -8.68487,-3.392 -16.67399,-8.458 -23.42341,-14.799 -6.75546,-6.335 -12.27424,-13.944 -16.16825,-22.293 -2.8208,-6.00125 -3.05837,-6.29219 -6.45257,-16.99769 -0.40841,-1.80599 -0.55784,-4.64412 -0.57678,-5.44853 -0.24656,-3.02849 0.0529,-1.46328 0.15242,-1.46228 0.20008,0.002 0.72128,1.46928 0.94951,1.46928 -0.45308,3.83047 0.6173,6.51406 3.2495,13.80006 1.30404,3.644 3.93667,8.71716 5.65595,11.82016 1.7605,3.08 3.63562,5.866 5.56704,8.278 1.24975,1.636 0.79228,0.687 0.41524,-0.301 -0.36597,-1.001 -0.66961,-2.013 0.68771,-0.508 0.5922,0.817 1.39754,1.79 2.25216,2.884 0.91594,1.043 1.87109,2.221 2.9288,3.306 0.52383,0.547 1.04866,1.094 1.56243,1.629 0.5359,0.513 1.06173,1.014 1.56344,1.495 0.99035,0.975 1.97064,1.776 2.73275,2.44 1.75045,1.054 1.19445,0.125 0.66258,-0.78 -0.53489,-0.911 -1.04464,-1.801 0.6686,-0.776 1.70219,1.02 5.55699,4.022 9.81095,6.428 4.21374,2.465 8.74721,4.328 10.65249,4.782 2.79106,0.869 3.74923,1.051 3.42749,0.864 -0.15885,-0.098 -0.63442,-0.3 -1.3533,-0.579 -0.72089,-0.273 -1.68409,-0.628 -2.78905,-1.115 -2.24713,-0.883 -5.06634,-2.265 -7.91471,-3.826 -2.84737,-1.572 -5.62938,-3.478 -7.94991,-5.188 0.83149,0.492 0.87975,0.424 0.45144,0.097 -0.41122,-0.351 -1.25779,-1.018 -2.20188,-1.754 -0.93304,-0.75 -1.91232,-1.633 -2.67041,-2.311 -0.72391,-0.716 -1.20149,-1.254 -1.12306,-1.335 0.3167,-0.334 0.62939,-0.641 2.29136,0.314 0.86869,0.432 2.00784,1.257 3.79548,2.359 1.74442,1.154 4.12326,2.604 7.36575,4.341 3.2978,1.625 0.44742,-0.793 0.69475,-1.174 9.29014,5.513 20.27743,8.5 31.44168,8.567 11.16124,0.021 22.42502,-2.892 32.12939,-8.644 9.72147,-5.699 17.85938,-14.052 23.30276,-23.805 2.5387,-4.559 6.41066,-17.42319 5.53515,-26.28018 h 0.56606 z" />
      <path
         style="fill:#ffffff"
         inkscape:connector-curvature="0"
         id="path94"
         d="m 288.046,85.63 h -0.021 c 0.095,0.365 0.191,0.756 0.287,1.17 -0.083,-0.383 -0.172,-0.773 -0.266,-1.17 z" />
      <path
         style="fill:#ffffff"
         inkscape:connector-curvature="0"
         id="path96"
         d="m 288.311,86.8 c 0.3,1.383 0.531,2.655 0.701,3.658 -0.19,-1.279 -0.442,-2.542 -0.701,-3.658 z" />
      <rect
         x="288.01199"
         y="98.181641"
         width="6.4330001"
         height="5.994"
         id="rect100"
         style="fill:#645394" />
      <path
         sodipodi:nodetypes="ccccccccccccccccccccccccccccccccccccccccccccc"
         style="fill:#645394;stroke-width:1.00270927"
         inkscape:connector-curvature="0"
         id="path90-3"
         d="m 148.68976,97.980659 c 0.46506,-9.42563 2.22127,-21.239178 4.16576,-25.670178 3.7613,-8.602 9.21272,-16.448 15.92796,-22.995 6.71021,-6.551999 14.68626,-11.806999 23.36509,-15.373999 8.67179,-3.584 18.04739,-5.445 27.39182,-5.495 9.34141,-0.074 18.70594,1.627 27.38679,5.031 8.68487,3.392 16.67399,8.458 23.42341,14.798999 6.75546,6.335 12.27424,13.944 16.16825,22.293 2.8208,6.00125 3.05837,6.29219 6.45257,16.997688 0.40841,1.80599 0.55784,4.64412 0.57678,5.44853 0.24656,3.02849 -0.0529,1.46328 -0.15242,1.46228 -0.20008,-0.002 -0.72128,-1.46928 -0.94951,-1.46928 0.45308,-3.83047 -0.6173,-6.51406 -3.2495,-13.800058 -1.30404,-3.644 -3.93667,-8.71716 -5.65595,-11.82016 -1.7605,-3.08 -3.63562,-5.866 -5.56704,-8.278 -1.24975,-1.636 -0.79228,-0.687 -0.41524,0.301 0.36597,1.001 0.66961,2.013 -0.68771,0.508 -0.5922,-0.817 -1.39754,-1.79 -2.25216,-2.884 -0.91594,-1.043 -1.87109,-2.221 -2.9288,-3.306 -0.52383,-0.547 -1.04866,-1.094 -1.56243,-1.629 -0.5359,-0.513 -1.06173,-1.014 -1.56344,-1.495 -0.99035,-0.975 -1.97064,-1.776 -2.73275,-2.44 -1.75045,-1.054 -1.19445,-0.125 -0.66258,0.78 0.53489,0.911 1.04464,1.801 -0.6686,0.776 -1.70219,-1.02 -5.55699,-4.022 -9.81095,-6.428 -4.21374,-2.464999 -8.74721,-4.327999 -10.65249,-4.781999 -2.79106,-0.869 -3.74923,-1.051 -3.42749,-0.864 0.15885,0.098 0.63442,0.3 1.3533,0.579 0.72089,0.273 1.68409,0.628 2.78905,1.115 2.24713,0.883 5.06634,2.265 7.91471,3.825999 2.84737,1.572 5.62938,3.478 7.94991,5.188 -0.83149,-0.492 -0.87975,-0.424 -0.45144,-0.097 0.41122,0.351 1.25779,1.018 2.20188,1.754 0.93304,0.75 1.91232,1.633 2.67041,2.311 0.72391,0.716 1.20149,1.254 1.12306,1.335 -0.3167,0.334 -0.62939,0.641 -2.29136,-0.314 -0.86869,-0.432 -2.00784,-1.257 -3.79548,-2.359 -1.74442,-1.154 -4.12326,-2.604 -7.36575,-4.341 -3.2978,-1.625 -0.44742,0.793 -0.69475,1.174 -9.29014,-5.512999 -20.27743,-8.499999 -31.44168,-8.566999 -11.16124,-0.021 -22.42501,2.892 -32.12938,8.643999 -9.72147,5.699 -17.85938,14.052 -23.30276,23.805 -2.5387,4.559 -6.41066,17.423188 -5.53515,26.280178 h -0.56606 z" />
      <rect
         x="148.68976"
         y="97.980659"
         width="6.4330001"
         height="5.994"
         id="rect100-6"
         style="fill:#645394" />
      <rect
         x="153.14629"
         y="97.687691"
         width="6.4330001"
         height="5.994"
         id="rect100-6-7"
         style="fill:#645394" />
      <rect
         x="148.73859"
         y="97.297066"
         width="6.4330001"
         height="5.994"
         id="rect100-6-7-5"
         style="fill:#645394" />
      <rect
         x="288.01199"
         y="98.00901"
         width="6.4330001"
         height="5.994"
         id="rect100-3"
         style="fill:#645394" />
    </g>
    <text
       xml:space="preserve"
       style="font-style:normal;font-weight:normal;font-size:10.58333302px;line-height:1.25;font-family:sans-serif;letter-spacing:0px;word-spacing:0px;fill:#000000;fill-opacity:1;stroke:none;stroke-width:0.26458332"
       x="34.460426"
       y="92.618828"
       id="text1143"><tspan
         sodipodi:role="line"
         id="tspan1141"
         x="34.460426"
         y="92.618828"
         style="font-style:normal;font-variant:normal;font-weight:normal;font-stretch:normal;font-size:14.11111069px;font-family:Pacifico;-inkscape-font-specification:Pacifico;fill:#645394;fill-opacity:1;stroke-width:0.26458332">SleepTracker</tspan></text>
  </g>
</svg>
