<?xml version="1.0" encoding="UTF-8" standalone="no"?>
<svg
   xmlns:dc="http://purl.org/dc/elements/1.1/"
   xmlns:cc="http://creativecommons.org/ns#"
   xmlns:rdf="http://www.w3.org/1999/02/22-rdf-syntax-ns#"
   xmlns:svg="http://www.w3.org/2000/svg"
   xmlns="http://www.w3.org/2000/svg"
   xmlns:sodipodi="http://sodipodi.sourceforge.net/DTD/sodipodi-0.dtd"
   xmlns:inkscape="http://www.inkscape.org/namespaces/inkscape"
   sodipodi:docname="sleeptracker-logo-rectangle-alternate.svg"
   inkscape:version="1.0.1 (1.0.1+r73)"
   id="svg1275"
   version="1.1"
   viewBox="0 0 126.87796 38.389808"
   height="38.389809mm"
   width="126.87796mm">
  <defs
     id="defs1269" />
  <sodipodi:namedview
     id="base"
     pagecolor="#ffffff"
     bordercolor="#666666"
     borderopacity="1.0"
     inkscape:pageopacity="0.0"
     inkscape:pageshadow="2"
     inkscape:zoom="0.76811714"
     inkscape:cx="577.22164"
     inkscape:cy="142.04374"
     inkscape:document-units="mm"
     inkscape:current-layer="g1068"
     showgrid="false"
     inkscape:window-width="1920"
     inkscape:window-height="965"
     inkscape:window-x="0"
     inkscape:window-y="25"
     inkscape:window-maximized="1"
     inkscape:document-rotation="0" />
  <metadata
     id="metadata1272">
    <rdf:RDF>
      <cc:Work
         rdf:about="">
        <dc:format>image/svg+xml</dc:format>
        <dc:type
           rdf:resource="http://purl.org/dc/dcmitype/StillImage" />
        <dc:title></dc:title>
      </cc:Work>
    </rdf:RDF>
  </metadata>
  <g
     inkscape:label="Layer 1"
     inkscape:groupmode="layer"
     id="layer1"
     transform="translate(12.088969,-72.039526)">
    <g
       id="g1413"
       transform="translate(0,-1.6972646)"
       style="fill:#000000">
      <g
         aria-label="VISUALIZE YOUR SLEEP HEALTH"
         id="text901"
         style="font-style:normal;font-weight:normal;font-size:7.05556px;line-height:1.25;font-family:sans-serif;letter-spacing:0px;word-spacing:0px;fill:#000000;fill-opacity:1;stroke:none;stroke-width:0.264583">
        <g
           id="g1082"
           style="fill:#008000">
          <g
             id="g1214">
            <g
               id="g1099"
               style="fill:#ffffff">
              <g
                 aria-label="SleepTracker"
                 id="text1143"
                 style="fill:#ffffff;font-style:normal;font-weight:normal;font-size:10.5833px;line-height:1.25;font-family:sans-serif;letter-spacing:0px;word-spacing:0px;fill-opacity:1;stroke:none;stroke-width:0.264583">
                <path
                   d="m 39.074756,92.731717 q -1.876776,0 -3.005664,-0.705555 -1.128888,-0.719666 -1.128888,-2.187221 0,-0.77611 0.268111,-1.185332 0.268111,-0.409222 0.790221,-0.409222 0.381,0 0.620889,0.197555 0.239888,0.197556 0.239888,0.508 0,0.282222 -0.04233,0.493888 0,0.05644 -0.02822,0.197556 -0.01411,0.141111 -0.01411,0.296333 0,0.634999 0.634999,0.945443 0.649111,0.310445 1.806221,0.310445 1.199444,0 1.876776,-0.423333 0.677333,-0.437444 0.677333,-1.213555 0,-0.479777 -0.310444,-0.818444 -0.310444,-0.352777 -0.77611,-0.578555 -0.465667,-0.239889 -1.312333,-0.578555 -1.086555,-0.423333 -1.777998,-0.804333 -0.677333,-0.380999 -1.171222,-1.03011 -0.479777,-0.663222 -0.479777,-1.636888 0,-1.015999 0.536222,-1.80622 0.550333,-0.790222 1.566332,-1.227666 1.03011,-0.437444 2.412998,-0.437444 1.03011,0 1.890887,0.310444 0.860777,0.296333 1.368777,0.917221 0.522111,0.620889 0.522111,1.523999 0,0.889 -0.268111,1.340555 -0.268111,0.451555 -0.790222,0.451555 -0.366888,0 -0.620888,-0.225778 -0.239889,-0.225777 -0.239889,-0.536221 0,-0.268111 0.04233,-0.493889 0.04233,-0.423333 0.04233,-0.536222 0,-0.592666 -0.578555,-0.90311 -0.578555,-0.310444 -1.439333,-0.310444 -1.213554,0 -1.862665,0.451555 -0.634999,0.437444 -0.634999,1.241777 0,0.536222 0.324555,0.917221 0.338666,0.381 0.832555,0.635 0.493888,0.254 1.382888,0.606777 1.072443,0.437444 1.721554,0.790222 0.649111,0.352777 1.100666,0.959554 0.465666,0.606778 0.465666,1.495777 0,1.66511 -1.269999,2.56822 -1.255888,0.889 -3.372553,0.889 z"
                   style="font-style:normal;font-variant:normal;font-weight:normal;font-stretch:normal;font-size:14.1111px;font-family:Pacifico;-inkscape-font-specification:Pacifico;fill:#ffffff;fill-opacity:1;stroke-width:0.264583"
                   id="path932" />
                <path
                   d="m 50.264843,89.472052 q 0.183444,0 0.282222,0.169334 0.112888,0.169333 0.112888,0.465666 0,0.564444 -0.268111,0.874888 -0.606777,0.747889 -1.326443,1.227666 -0.705555,0.479777 -1.608665,0.479777 -1.241777,0 -1.848555,-1.128888 -0.592666,-1.128888 -0.592666,-2.920997 0,-1.721555 0.437444,-3.922886 0.451556,-2.201332 1.312333,-3.781775 0.874888,-1.580443 2.074331,-1.580443 0.677333,0 1.058333,0.634999 0.395111,0.620889 0.395111,1.79211 0,1.679221 -0.931333,3.894664 -0.931332,2.215442 -2.525887,4.388552 0.09878,0.578555 0.324556,0.832555 0.225777,0.239888 0.592666,0.239888 0.578555,0 1.015999,-0.324555 0.437444,-0.338666 1.114777,-1.142999 0.169333,-0.197556 0.381,-0.197556 z m -1.735666,-8.720659 q -0.324555,0 -0.733777,1.171221 -0.409222,1.171221 -0.719666,2.906887 -0.310444,1.735665 -0.338666,3.330219 1.001888,-1.650999 1.594554,-3.301997 0.592666,-1.66511 0.592666,-3.033887 0,-1.072443 -0.395111,-1.072443 z"
                   style="font-style:normal;font-variant:normal;font-weight:normal;font-stretch:normal;font-size:14.1111px;font-family:Pacifico;-inkscape-font-specification:Pacifico;fill:#ffffff;fill-opacity:1;stroke-width:0.264583"
                   id="path934" />
                <path
                   d="m 55.810481,89.472052 q 0.183445,0 0.282222,0.169334 0.112889,0.169333 0.112889,0.465666 0,0.564444 -0.268111,0.874888 -0.522111,0.635 -1.481665,1.171222 -0.945444,0.536221 -2.031999,0.536221 -1.481665,0 -2.300109,-0.804332 -0.818444,-0.804333 -0.818444,-2.201332 0,-0.973666 0.409222,-1.806221 0.409222,-0.846666 1.128888,-1.340554 0.733777,-0.493889 1.650999,-0.493889 0.818443,0 1.312332,0.493889 0.493888,0.479777 0.493888,1.312332 0,0.973666 -0.705555,1.679221 -0.691443,0.691444 -2.356553,1.100666 0.352777,0.64911 1.340554,0.64911 0.635,0 1.439332,-0.437444 0.818444,-0.451555 1.41111,-1.171221 0.169334,-0.197556 0.381,-0.197556 z m -3.555997,-2.046109 q -0.522111,0 -0.888999,0.606777 -0.352778,0.606778 -0.352778,1.467555 v 0.02822 q 0.832555,-0.197556 1.312332,-0.592666 0.479778,-0.395111 0.479778,-0.917222 0,-0.268111 -0.155222,-0.423333 -0.141111,-0.169333 -0.395111,-0.169333 z"
                   style="font-style:normal;font-variant:normal;font-weight:normal;font-stretch:normal;font-size:14.1111px;font-family:Pacifico;-inkscape-font-specification:Pacifico;fill:#ffffff;fill-opacity:1;stroke-width:0.264583"
                   id="path936" />
                <path
                   d="m 61.356139,89.472052 q 0.183445,0 0.282222,0.169334 0.112889,0.169333 0.112889,0.465666 0,0.564444 -0.268111,0.874888 -0.52211,0.635 -1.481665,1.171222 -0.945444,0.536221 -2.031999,0.536221 -1.481665,0 -2.300109,-0.804332 -0.818444,-0.804333 -0.818444,-2.201332 0,-0.973666 0.409222,-1.806221 0.409222,-0.846666 1.128888,-1.340554 0.733777,-0.493889 1.650999,-0.493889 0.818444,0 1.312332,0.493889 0.493889,0.479777 0.493889,1.312332 0,0.973666 -0.705555,1.679221 -0.691444,0.691444 -2.356554,1.100666 0.352777,0.64911 1.340554,0.64911 0.635,0 1.439333,-0.437444 0.818443,-0.451555 1.41111,-1.171221 0.169333,-0.197556 0.380999,-0.197556 z m -3.555997,-2.046109 q -0.522111,0 -0.888999,0.606777 -0.352778,0.606778 -0.352778,1.467555 v 0.02822 q 0.832555,-0.197556 1.312333,-0.592666 0.479777,-0.395111 0.479777,-0.917222 0,-0.268111 -0.155222,-0.423333 -0.141111,-0.169333 -0.395111,-0.169333 z"
                   style="font-style:normal;font-variant:normal;font-weight:normal;font-stretch:normal;font-size:14.1111px;font-family:Pacifico;-inkscape-font-specification:Pacifico;fill:#ffffff;fill-opacity:1;stroke-width:0.264583"
                   id="path938" />
                <path
                   d="m 68.425774,89.472052 q 0.183444,0 0.282222,0.169334 0.112889,0.169333 0.112889,0.465666 0,0.564444 -0.268111,0.874888 -0.606777,0.747889 -1.312332,1.227666 -0.691444,0.479777 -1.580444,0.479777 -0.747888,0 -1.213554,-0.536221 -0.804333,0.52211 -1.679221,0.536221 -0.183444,2.723443 -0.832555,4.543775 -0.649111,1.834443 -1.904999,1.834443 -0.761999,0 -1.128888,-0.550333 -0.366888,-0.550333 -0.366888,-1.523999 0,-1.382888 0.634999,-3.231442 0.635,-1.834443 1.961443,-4.049886 0,-2.06022 -0.02822,-2.864553 -0.01411,-0.409222 0.324555,-0.649111 0.338667,-0.239888 0.846666,-0.239888 0.296334,0 0.423333,0.126999 0.141111,0.112889 0.155223,0.465667 0,0.352777 0.01411,0.52211 0.451555,-0.564444 0.888999,-0.804332 0.437444,-0.254 0.931333,-0.254 0.790221,0 1.28411,0.634999 0.507999,0.635 0.507999,1.66511 0,0.747889 -0.239888,1.453444 -0.239889,0.705555 -0.663222,1.28411 0.296333,0.08467 0.493888,0.08467 0.465667,0 0.889,-0.338666 0.423333,-0.338667 1.086554,-1.128888 0.169334,-0.197556 0.381,-0.197556 z m -5.587996,1.862666 q 0.508,-0.112889 0.931333,-0.550333 0.437444,-0.451555 0.691444,-1.100666 0.254,-0.663222 0.254,-1.382888 0,-0.423333 -0.169333,-0.634999 -0.169334,-0.225778 -0.451556,-0.225778 -0.507999,0 -1.227665,1.072444 -0.01411,0.620888 -0.01411,1.820332 0,0.64911 -0.01411,1.001888 z m -2.69522,6.349995 q 0.381,0 0.635,-1.66511 0.254,-1.650999 0.324555,-4.120441 -0.606777,1.41111 -0.959555,2.69522 -0.352777,1.28411 -0.352777,2.158998 0,0.451555 0.112889,0.691444 0.09878,0.239889 0.239888,0.239889 z"
                   style="font-style:normal;font-variant:normal;font-weight:normal;font-stretch:normal;font-size:14.1111px;font-family:Pacifico;-inkscape-font-specification:Pacifico;fill:#ffffff;fill-opacity:1;stroke-width:0.264583"
                   id="path940" />
                <path
                   d="m 78.867973,80.906615 q 0.437444,0.08467 0.649111,0.296333 0.225777,0.211666 0.225777,0.493888 0,0.465667 -0.268111,0.677333 -0.253999,0.211667 -0.818443,0.169333 -1.269999,-0.09878 -1.989665,-0.127 -0.705556,-0.04233 -1.862666,-0.05644 -0.52211,2.596442 -0.959555,5.221107 -0.155222,0.959555 -0.324555,2.229554 -0.169333,1.255888 -0.225777,2.031998 -0.02822,0.409222 -0.338667,0.635 -0.310444,0.211666 -0.747888,0.211666 -0.465666,0 -0.719666,-0.225777 -0.254,-0.225778 -0.254,-0.592666 0,-0.338667 0.09878,-1.114777 0.112888,-0.790222 0.253999,-1.650999 0.155223,-0.860777 0.239889,-1.495777 0.155222,-1.072443 0.352778,-2.130776 0.197555,-1.058332 0.39511,-2.003776 0.04233,-0.211667 0.09878,-0.479778 0.05645,-0.282222 0.127,-0.620888 -1.382888,0.04233 -2.173109,0.225778 -0.790222,0.183444 -1.128888,0.52211 -0.324556,0.324556 -0.324556,0.846666 0,0.479778 0.282222,0.917222 0.05644,0.09878 0.05644,0.211666 0,0.268111 -0.324556,0.508 -0.310444,0.225778 -0.64911,0.225778 -0.239889,0 -0.395111,-0.141111 -0.282222,-0.239889 -0.465666,-0.677333 -0.183445,-0.451555 -0.183445,-1.015999 0,-1.199444 0.776111,-1.91911 0.790222,-0.733777 2.384776,-1.072444 1.608665,-0.338666 4.120441,-0.338666 1.552221,0 2.469443,0.05644 0.931332,0.05645 1.622776,0.183445 z"
                   style="font-style:normal;font-variant:normal;font-weight:normal;font-stretch:normal;font-size:14.1111px;font-family:Pacifico;-inkscape-font-specification:Pacifico;fill:#ffffff;fill-opacity:1;stroke-width:0.264583"
                   id="path942" />
                <path
                   d="m 78.091834,92.689383 q -0.536222,0 -0.762,-0.564444 -0.211666,-0.564444 -0.211666,-1.806221 0,-1.834443 0.522111,-3.485441 0.127,-0.409222 0.409222,-0.592666 0.296333,-0.197556 0.818443,-0.197556 0.282222,0 0.395111,0.07056 0.112889,0.07055 0.112889,0.268111 0,0.225777 -0.211667,1.015999 -0.141111,0.564444 -0.225777,0.987777 -0.08467,0.423333 -0.141111,1.044221 0.465666,-1.213554 1.044221,-1.975554 0.578555,-0.761999 1.128888,-1.086555 0.564444,-0.324555 1.030111,-0.324555 0.917221,0 0.917221,0.917222 0,0.183444 -0.127,0.888999 -0.112889,0.564444 -0.112889,0.705555 0,0.493888 0.352778,0.493888 0.395111,0 1.015999,-0.620888 0.183444,-0.183444 0.381,-0.183444 0.183444,0 0.282222,0.169333 0.112889,0.155222 0.112889,0.423333 0,0.522111 -0.282222,0.818444 -0.395111,0.409222 -0.931333,0.705555 -0.522111,0.282222 -1.114777,0.282222 -0.747888,0 -1.142999,-0.381 -0.381,-0.381 -0.381,-1.03011 0,-0.211667 0.04233,-0.423333 0.02822,-0.282222 0.02822,-0.381 0,-0.225778 -0.155222,-0.225778 -0.211667,0 -0.564444,0.479778 -0.338667,0.465666 -0.677333,1.241777 -0.338667,0.77611 -0.550333,1.636887 -0.155222,0.663222 -0.366889,0.903111 -0.197555,0.225777 -0.634999,0.225777 z"
                   style="font-style:normal;font-variant:normal;font-weight:normal;font-stretch:normal;font-size:14.1111px;font-family:Pacifico;-inkscape-font-specification:Pacifico;fill:#ffffff;fill-opacity:1;stroke-width:0.264583"
                   id="path944" />
                <path
                   d="m 85.246162,92.689383 q -0.874888,0 -1.396999,-0.634999 -0.52211,-0.635 -0.52211,-1.66511 0,-1.128888 0.52211,-2.130776 0.522111,-1.015999 1.382888,-1.622777 0.874888,-0.620888 1.848554,-0.620888 0.310445,0 0.409222,0.127 0.112889,0.112889 0.183445,0.423333 0.296333,-0.05645 0.620888,-0.05645 0.691444,0 0.691444,0.493889 0,0.296333 -0.211667,1.41111 -0.324555,1.622776 -0.324555,2.257776 0,0.211666 0.09878,0.338666 0.112889,0.127 0.282222,0.127 0.268111,0 0.64911,-0.338666 0.381,-0.352778 1.030111,-1.128888 0.169333,-0.197556 0.380999,-0.197556 0.183445,0 0.282222,0.169334 0.112889,0.169333 0.112889,0.465666 0,0.564444 -0.268111,0.874888 -0.578555,0.719666 -1.227665,1.213555 -0.649111,0.493888 -1.255888,0.493888 -0.465667,0 -0.860777,-0.310444 -0.381,-0.324555 -0.578556,-0.874888 -0.733777,1.185332 -1.848554,1.185332 z m 0.508,-1.425221 q 0.310444,0 0.592666,-0.366888 0.282222,-0.366889 0.409222,-0.973666 l 0.522111,-2.596443 q -0.592666,0.01411 -1.100666,0.451555 -0.493889,0.423333 -0.790222,1.128888 -0.296333,0.705555 -0.296333,1.495777 0,0.437444 0.169333,0.649111 0.183445,0.211666 0.493889,0.211666 z"
                   style="font-style:normal;font-variant:normal;font-weight:normal;font-stretch:normal;font-size:14.1111px;font-family:Pacifico;-inkscape-font-specification:Pacifico;fill:#ffffff;fill-opacity:1;stroke-width:0.264583"
                   id="path946" />
                <path
                   d="m 92.837923,92.689383 q -1.382888,0 -2.158998,-0.77611 -0.762,-0.790222 -0.762,-2.074332 0,-1.142999 0.451556,-2.003776 0.451555,-0.860777 1.171221,-1.326444 0.719666,-0.465666 1.509888,-0.465666 0.77611,0 1.199443,0.465666 0.437444,0.451556 0.437444,1.171222 0,0.592666 -0.268111,1.001888 -0.253999,0.409222 -0.677332,0.409222 -0.268111,0 -0.437445,-0.127 -0.155222,-0.127 -0.155222,-0.352778 0,-0.09878 0.02822,-0.225777 0.02822,-0.127 0.04233,-0.183445 0.07055,-0.211666 0.07055,-0.39511 0,-0.183445 -0.09878,-0.282222 -0.08467,-0.09878 -0.254,-0.09878 -0.324555,0 -0.606777,0.296333 -0.282222,0.282222 -0.451556,0.776111 -0.169333,0.493888 -0.169333,1.086554 0,1.636888 1.425221,1.636888 0.578555,0 1.241777,-0.381 0.677333,-0.395111 1.326443,-1.171221 0.169334,-0.197556 0.381,-0.197556 0.183444,0 0.282222,0.169334 0.112889,0.169333 0.112889,0.465666 0,0.536222 -0.268111,0.874888 -0.663222,0.818444 -1.594554,1.269999 -0.917222,0.437444 -1.777999,0.437444 z"
                   style="font-style:normal;font-variant:normal;font-weight:normal;font-stretch:normal;font-size:14.1111px;font-family:Pacifico;-inkscape-font-specification:Pacifico;fill:#ffffff;fill-opacity:1;stroke-width:0.264583"
                   id="path948" />
                <path
                   d="m 103.49178,89.472052 q 0.18344,0 0.28222,0.169334 0.11289,0.169333 0.11289,0.465666 0,0.564444 -0.26811,0.874888 -0.635,0.776111 -1.28411,1.241777 -0.64911,0.465666 -1.53811,0.465666 -1.086556,0 -1.749778,-0.620888 -0.663222,-0.620888 -0.663222,-1.650999 0,-0.550333 0.564444,-0.790221 0.620889,-0.268111 0.889,-0.564444 0.268106,-0.310445 0.268106,-0.747889 0,-0.254 -0.112884,-0.380999 -0.09878,-0.127 -0.254,-0.127 -0.381,0 -0.846666,0.550333 -0.451555,0.550332 -0.846666,1.425221 -0.395111,0.860777 -0.620889,1.777998 -0.155222,0.663222 -0.366888,0.903111 -0.197556,0.225777 -0.635,0.225777 -0.437444,0 -0.64911,-0.310444 -0.197556,-0.324555 -0.268111,-0.987777 -0.07056,-0.663222 -0.07056,-1.947332 0,-2.173109 0.437444,-4.529663 0.451556,-2.356554 1.312333,-3.951108 0.874888,-1.608665 2.088443,-1.608665 0.64911,0 1.04422,0.564444 0.40922,0.550333 0.40922,1.439332 0,1.425221 -0.832552,2.963331 -0.832555,1.523999 -2.709331,3.570108 -0.04233,0.733777 -0.04233,1.509888 0.677333,-1.763888 1.552221,-2.554109 0.874889,-0.804333 1.636886,-0.804333 0.70556,0 1.12889,0.479778 0.43744,0.479777 0.43744,1.185332 0,0.77611 -0.39511,1.425221 -0.39511,0.649111 -1.35466,1.15711 0.0564,0.381 0.33866,0.620889 0.29634,0.225777 0.70556,0.225777 0.43744,0 0.84667,-0.338666 0.40922,-0.338667 1.07244,-1.128888 0.16933,-0.197556 0.381,-0.197556 z m -4.515554,-8.720659 q -0.253999,0 -0.564444,0.733777 -0.310444,0.719666 -0.606777,1.961443 -0.282222,1.227665 -0.465666,2.681109 0.874888,-1.030111 1.439332,-2.243665 0.578555,-1.213555 0.578555,-2.201332 0,-0.451555 -0.09878,-0.691444 -0.09878,-0.239888 -0.282222,-0.239888 z"
                   style="font-style:normal;font-variant:normal;font-weight:normal;font-stretch:normal;font-size:14.1111px;font-family:Pacifico;-inkscape-font-specification:Pacifico;fill:#ffffff;fill-opacity:1;stroke-width:0.264583"
                   id="path950" />
                <path
                   d="m 109.03743,89.472052 q 0.18345,0 0.28223,0.169334 0.11289,0.169333 0.11289,0.465666 0,0.564444 -0.26812,0.874888 -0.52211,0.635 -1.48166,1.171222 -0.94544,0.536221 -2.032,0.536221 -1.48166,0 -2.30011,-0.804332 -0.81844,-0.804333 -0.81844,-2.201332 0,-0.973666 0.40922,-1.806221 0.40922,-0.846666 1.12889,-1.340554 0.73377,-0.493889 1.651,-0.493889 0.81844,0 1.31233,0.493889 0.49389,0.479777 0.49389,1.312332 0,0.973666 -0.70556,1.679221 -0.69144,0.691444 -2.35655,1.100666 0.35278,0.64911 1.34055,0.64911 0.635,0 1.43933,-0.437444 0.81845,-0.451555 1.41112,-1.171221 0.16933,-0.197556 0.38099,-0.197556 z m -3.55599,-2.046109 q -0.52211,0 -0.889,0.606777 -0.35278,0.606778 -0.35278,1.467555 v 0.02822 q 0.83256,-0.197556 1.31233,-0.592666 0.47978,-0.395111 0.47978,-0.917222 0,-0.268111 -0.15522,-0.423333 -0.14111,-0.169333 -0.39511,-0.169333 z"
                   style="font-style:normal;font-variant:normal;font-weight:normal;font-stretch:normal;font-size:14.1111px;font-family:Pacifico;-inkscape-font-specification:Pacifico;fill:#ffffff;fill-opacity:1;stroke-width:0.264583"
                   id="path952" />
                <path
                   d="m 113.99042,87.976276 q 0.31045,0 0.52211,0.225777 0.22578,0.211667 0.22578,0.536222 0,0.183445 -0.0847,0.395111 -0.22577,0.522111 -0.635,0.874888 -0.40922,0.352778 -0.90311,0.352778 -0.39511,0 -0.67733,-0.282222 -0.26811,-0.282222 -0.26811,-0.762 0,-0.268111 0.0282,-0.578555 0.0282,-0.225777 0.0282,-0.310444 0,-0.112889 -0.0564,-0.169333 -0.0423,-0.05644 -0.11289,-0.05644 -0.19755,0 -0.53622,0.479778 -0.33867,0.465666 -0.67733,1.241777 -0.33867,0.77611 -0.55034,1.636887 -0.15522,0.677333 -0.35277,0.903111 -0.19756,0.225777 -0.64911,0.225777 -0.53623,0 -0.762,-0.564444 -0.21167,-0.564444 -0.21167,-1.806221 0,-1.834443 0.52211,-3.485441 0.127,-0.409222 0.40922,-0.592666 0.29634,-0.197556 0.81845,-0.197556 0.28222,0 0.39511,0.07056 0.11289,0.07055 0.11289,0.268111 0,0.225777 -0.21167,1.015999 -0.14111,0.564444 -0.22578,0.987777 -0.0847,0.423333 -0.14111,1.044221 0.46567,-1.213554 1.04422,-1.975554 0.57856,-0.761999 1.12889,-1.086555 0.55033,-0.324555 1.00189,-0.324555 0.40922,0 0.62089,0.239889 0.22577,0.225777 0.22577,0.677333 0,0.268111 -0.15522,1.015999 z"
                   style="font-style:normal;font-variant:normal;font-weight:normal;font-stretch:normal;font-size:14.1111px;font-family:Pacifico;-inkscape-font-specification:Pacifico;fill:#ffffff;fill-opacity:1;stroke-width:0.264583"
                   id="path954" />
              </g>
              <g
                 id="g1059"
                 style="fill:#ffffff">
                <path
                   d="m 31.448878,105.30824 -0.592667,-4.27096 h 0.931334 l 0.216371,2.94452 v 0.6397 l 0.159926,-0.6397 1.063037,-2.94452 h 0.931334 l -1.787408,4.27096 z"
                   style="font-style:normal;font-variant:normal;font-weight:normal;font-stretch:normal;font-size:7.05556px;font-family:Timmana;-inkscape-font-specification:Timmana;fill:#ffffff;stroke-width:0.264583;fill-opacity:1"
                   id="path957" />
                <path
                   d="m 35.29651,105.30824 h -0.903112 l 0.602075,-4.27096 h 0.903111 z"
                   style="font-style:normal;font-variant:normal;font-weight:normal;font-stretch:normal;font-size:7.05556px;font-family:Timmana;-inkscape-font-specification:Timmana;fill:#ffffff;stroke-width:0.264583;fill-opacity:1"
                   id="path959" />
                <path
                   d="m 38.146951,100.96202 q 0.451556,0 0.667927,0.0847 0.21637,0.0847 0.301037,0.13171 0.09407,0.047 0.141111,0.0659 l -0.310445,0.64911 -0.122296,-0.0658 q -0.385704,-0.18815 -0.677334,-0.18815 -0.244592,0 -0.432741,0.16933 -0.169333,0.15993 -0.169333,0.30104 -0.02822,0.19756 0.06585,0.33867 0.103481,0.14111 0.263407,0.26341 0.159926,0.12229 0.348075,0.24459 0.197555,0.1223 0.348074,0.28222 0.376296,0.36689 0.29163,0.92193 -0.07526,0.55504 -0.479778,0.8937 -0.404519,0.33867 -1.110075,0.33867 -0.573852,0 -0.997186,-0.23519 -0.08467,-0.0564 -0.141111,-0.0847 l 0.301037,-0.64911 q 0.04704,0.0188 0.122296,0.0658 0.08467,0.047 0.188149,0.0847 0.263407,0.11289 0.489185,0.11289 0.413926,0 0.62089,-0.28222 0.06585,-0.0847 0.08467,-0.23518 0.02822,-0.15993 -0.07526,-0.28223 -0.103482,-0.1317 -0.263408,-0.24459 -0.159926,-0.1223 -0.348074,-0.24459 -0.188148,-0.13171 -0.348074,-0.29163 -0.366889,-0.36689 -0.29163,-0.92193 0.07526,-0.56444 0.479778,-0.8937 0.404519,-0.32926 1.05363,-0.32926 z"
                   style="font-style:normal;font-variant:normal;font-weight:normal;font-stretch:normal;font-size:7.05556px;font-family:Timmana;-inkscape-font-specification:Timmana;fill:#ffffff;stroke-width:0.264583;fill-opacity:1"
                   id="path961" />
                <path
                   d="m 39.943763,101.03728 h 0.903112 l -0.319852,2.27659 q -0.122297,0.72437 -0.08467,0.95956 0.04704,0.23518 0.141111,0.31985 0.103482,0.0847 0.29163,0.0847 0.508,0 0.630297,-0.762 0.04704,-0.254 0.103481,-0.60208 l 0.310445,-2.27659 h 0.893704 l -0.319852,2.27659 q -0.150519,1.12889 -0.536222,1.59926 -0.385704,0.47978 -1.175927,0.47978 -0.771408,0 -1.044223,-0.47978 -0.272815,-0.47978 -0.122296,-1.59926 z"
                   style="font-style:normal;font-variant:normal;font-weight:normal;font-stretch:normal;font-size:7.05556px;font-family:Timmana;-inkscape-font-specification:Timmana;fill:#ffffff;stroke-width:0.264583;fill-opacity:1"
                   id="path963" />
                <path
                   d="m 45.258938,101.87454 q -0.06585,0.15992 -0.150519,0.40452 -0.08467,0.24459 -0.188148,0.52681 -0.103482,0.27282 -0.216371,0.57385 -0.103481,0.29163 -0.21637,0.57386 h 0.921926 q -0.01881,-0.28223 -0.04704,-0.57386 -0.02822,-0.30103 -0.04704,-0.57385 -0.01881,-0.28222 -0.03763,-0.52681 -0.01881,-0.2446 -0.01881,-0.40452 z m -0.404519,-0.83726 h 1.081853 l 0.564444,4.27096 h -0.950148 l -0.08467,-0.74318 h -1.194742 l -0.301037,0.74318 H 43.06701 Z"
                   style="font-style:normal;font-variant:normal;font-weight:normal;font-stretch:normal;font-size:7.05556px;font-family:Timmana;-inkscape-font-specification:Timmana;fill:#ffffff;stroke-width:0.264583;fill-opacity:1"
                   id="path965" />
                <path
                   d="m 46.811159,105.30824 0.602074,-4.27096 h 0.903112 l -0.508,3.53718 h 1.27 l -0.159926,0.73378 z"
                   style="font-style:normal;font-variant:normal;font-weight:normal;font-stretch:normal;font-size:7.05556px;font-family:Timmana;-inkscape-font-specification:Timmana;fill:#ffffff;stroke-width:0.264583;fill-opacity:1"
                   id="path967" />
                <path
                   d="m 50.26367,105.30824 h -0.903112 l 0.602075,-4.27096 h 0.903111 z"
                   style="font-style:normal;font-variant:normal;font-weight:normal;font-stretch:normal;font-size:7.05556px;font-family:Timmana;-inkscape-font-specification:Timmana;fill:#ffffff;stroke-width:0.264583;fill-opacity:1"
                   id="path969" />
                <path
                   d="m 54.214778,101.62054 q -0.987778,1.48637 -2.003779,2.96333 h 1.627482 L 53.735,105.30824 h -2.634076 l 0.07526,-0.58326 2.013187,-2.96333 h -1.542816 l 0.103482,-0.72437 h 2.549409 z"
                   style="font-style:normal;font-variant:normal;font-weight:normal;font-stretch:normal;font-size:7.05556px;font-family:Timmana;-inkscape-font-specification:Timmana;fill:#ffffff;stroke-width:0.264583;fill-opacity:1"
                   id="path971" />
                <path
                   d="m 54.506404,105.30824 0.602074,-4.27096 h 2.304816 l -0.112889,0.73378 h -1.382889 l -0.141112,0.98777 h 1.053631 l -0.09407,0.68674 h -1.063038 l -0.159926,1.12889 h 1.401704 l -0.09407,0.73378 z"
                   style="font-style:normal;font-variant:normal;font-weight:normal;font-stretch:normal;font-size:7.05556px;font-family:Timmana;-inkscape-font-specification:Timmana;fill:#ffffff;stroke-width:0.264583;fill-opacity:1"
                   id="path973" />
                <path
                   d="m 61.599584,105.30824 h -0.903111 l 0.197555,-1.41111 -0.07526,-0.26341 q -0.197556,-0.64911 -0.404519,-1.28881 -0.197555,-0.63971 -0.395111,-1.30763 h 0.959556 q 0.07526,0.30103 0.141111,0.61148 0.07526,0.31044 0.141111,0.59267 0.06585,0.27281 0.112889,0.49859 0.04704,0.22578 0.08467,0.35748 0,0 0.178741,-0.35748 0.112889,-0.22578 0.254,-0.49859 0.141111,-0.28223 0.301037,-0.59267 l 0.301038,-0.61148 h 0.968963 q -0.385704,0.66792 -0.762,1.30763 -0.376297,0.6397 -0.752593,1.28881 l -0.150519,0.26341 z"
                   style="font-style:normal;font-variant:normal;font-weight:normal;font-stretch:normal;font-size:7.05556px;font-family:Timmana;-inkscape-font-specification:Timmana;fill:#ffffff;stroke-width:0.264583;fill-opacity:1"
                   id="path975" />
                <path
                   d="m 65.268467,104.67795 q 0.385704,0 0.602074,-0.38571 0.216371,-0.39511 0.310445,-1.11007 0.103481,-0.72437 -0.0094,-1.11008 -0.112889,-0.39511 -0.489185,-0.39511 -0.366889,0 -0.58326,0.39511 -0.21637,0.38571 -0.319852,1.11008 -0.103481,0.71496 0,1.11007 0.103482,0.38571 0.489186,0.38571 z m 0.517407,-3.71593 q 0.790223,0 1.138298,0.53622 0.348074,0.53622 0.188148,1.68393 -0.159926,1.13829 -0.658519,1.67452 -0.498593,0.53622 -1.288816,0.53622 -1.627482,0 -1.317038,-2.21074 0.159926,-1.14771 0.658519,-1.68393 0.498593,-0.53622 1.279408,-0.53622 z"
                   style="font-style:normal;font-variant:normal;font-weight:normal;font-stretch:normal;font-size:7.05556px;font-family:Timmana;-inkscape-font-specification:Timmana;fill:#ffffff;stroke-width:0.264583;fill-opacity:1"
                   id="path977" />
                <path
                   d="m 67.911941,101.03728 h 0.903112 l -0.319853,2.27659 q -0.122296,0.72437 -0.08467,0.95956 0.04704,0.23518 0.141111,0.31985 0.103482,0.0847 0.29163,0.0847 0.508,0 0.630296,-0.762 0.04704,-0.254 0.103482,-0.60208 l 0.310445,-2.27659 h 0.893704 l -0.319852,2.27659 q -0.150519,1.12889 -0.536223,1.59926 -0.385704,0.47978 -1.175926,0.47978 -0.771408,0 -1.044223,-0.47978 -0.272815,-0.47978 -0.122297,-1.59926 z"
                   style="font-style:normal;font-variant:normal;font-weight:normal;font-stretch:normal;font-size:7.05556px;font-family:Timmana;-inkscape-font-specification:Timmana;fill:#ffffff;stroke-width:0.264583;fill-opacity:1"
                   id="path979" />
                <path
                   d="m 72.211116,103.02224 0.395111,0.0188 q 0.536223,0 0.639704,-0.66793 0.112889,-0.68674 -0.489185,-0.68674 -0.141111,0 -0.366889,0.0188 z m 0.235185,0.66793 -0.329259,-0.009 -0.225778,1.62748 h -0.856075 l 0.602075,-4.27096 q 0,0 1.147704,-0.0282 0.818445,0 1.12889,0.31045 0.329259,0.31044 0.235185,1.07244 -0.07526,0.508 -0.329259,0.79963 -0.254001,0.28223 -0.555038,0.3763 l 0.592667,1.74037 h -0.959556 z"
                   style="font-style:normal;font-variant:normal;font-weight:normal;font-stretch:normal;font-size:7.05556px;font-family:Timmana;-inkscape-font-specification:Timmana;fill:#ffffff;stroke-width:0.264583;fill-opacity:1"
                   id="path981" />
                <path
                   d="m 78.862138,100.96202 q 0.451556,0 0.667927,0.0847 0.21637,0.0847 0.301037,0.13171 0.09407,0.047 0.141111,0.0659 l -0.310444,0.64911 -0.122297,-0.0658 q -0.385704,-0.18815 -0.677334,-0.18815 -0.244592,0 -0.432741,0.16933 -0.169333,0.15993 -0.169333,0.30104 -0.02822,0.19756 0.06585,0.33867 0.103481,0.14111 0.263407,0.26341 0.159926,0.12229 0.348075,0.24459 0.197555,0.1223 0.348074,0.28222 0.376297,0.36689 0.29163,0.92193 -0.07526,0.55504 -0.479778,0.8937 -0.404519,0.33867 -1.110075,0.33867 -0.573852,0 -0.997186,-0.23519 -0.08467,-0.0564 -0.141111,-0.0847 l 0.301037,-0.64911 q 0.04704,0.0188 0.122297,0.0658 0.08467,0.047 0.188148,0.0847 0.263407,0.11289 0.489185,0.11289 0.413926,0 0.62089,-0.28222 0.06585,-0.0847 0.08467,-0.23518 0.02822,-0.15993 -0.07526,-0.28223 -0.103482,-0.1317 -0.263408,-0.24459 -0.159926,-0.1223 -0.348074,-0.24459 -0.188148,-0.13171 -0.348074,-0.29163 -0.366889,-0.36689 -0.29163,-0.92193 0.07526,-0.56444 0.479778,-0.8937 0.404519,-0.32926 1.05363,-0.32926 z"
                   style="font-style:normal;font-variant:normal;font-weight:normal;font-stretch:normal;font-size:7.05556px;font-family:Timmana;-inkscape-font-specification:Timmana;fill:#ffffff;stroke-width:0.264583;fill-opacity:1"
                   id="path983" />
                <path
                   d="m 80.254431,105.30824 0.602075,-4.27096 h 0.903111 l -0.508,3.53718 h 1.270001 l -0.159926,0.73378 z"
                   style="font-style:normal;font-variant:normal;font-weight:normal;font-stretch:normal;font-size:7.05556px;font-family:Timmana;-inkscape-font-specification:Timmana;fill:#ffffff;stroke-width:0.264583;fill-opacity:1"
                   id="path985" />
                <path
                   d="m 82.803832,105.30824 0.602074,-4.27096 h 2.304816 l -0.112889,0.73378 h -1.382889 l -0.141112,0.98777 h 1.053631 l -0.09407,0.68674 h -1.063038 l -0.159926,1.12889 h 1.401705 l -0.09408,0.73378 z"
                   style="font-style:normal;font-variant:normal;font-weight:normal;font-stretch:normal;font-size:7.05556px;font-family:Timmana;-inkscape-font-specification:Timmana;fill:#ffffff;stroke-width:0.264583;fill-opacity:1"
                   id="path987" />
                <path
                   d="m 85.983534,105.30824 0.602075,-4.27096 h 2.304816 l -0.112889,0.73378 h -1.38289 l -0.141111,0.98777 h 1.053631 l -0.09407,0.68674 h -1.063037 l -0.159926,1.12889 h 1.401704 l -0.09407,0.73378 z"
                   style="font-style:normal;font-variant:normal;font-weight:normal;font-stretch:normal;font-size:7.05556px;font-family:Timmana;-inkscape-font-specification:Timmana;fill:#ffffff;stroke-width:0.264583;fill-opacity:1"
                   id="path989" />
                <path
                   d="m 90.818946,101.68639 q -0.06585,0 -0.131704,0 -0.06585,0 -0.141111,0.009 l -0.225778,1.55222 h 0.254 q 0.451556,0 0.630297,-0.41393 0.06585,-0.15052 0.103481,-0.37629 0.103482,-0.77141 -0.489185,-0.77141 z m -1.053631,-0.64911 1.119483,-0.0282 q 0.827852,0 1.128889,0.36689 0.310445,0.36689 0.197556,1.08186 -0.103482,0.762 -0.58326,1.13829 -0.404518,0.31045 -1.09126,0.31045 -0.07526,0 -0.150518,0 -0.07526,0 -0.150519,-0.009 l -0.197556,1.41111 h -0.874889 z"
                   style="font-style:normal;font-variant:normal;font-weight:normal;font-stretch:normal;font-size:7.05556px;font-family:Timmana;-inkscape-font-specification:Timmana;fill:#ffffff;stroke-width:0.264583;fill-opacity:1"
                   id="path991" />
                <path
                   d="m 97.8839,105.30824 h -0.893704 l 0.254,-1.75918 h -1.166519 l -0.244593,1.75918 h -0.903112 l 0.602075,-4.27096 h 0.903111 l -0.254,1.79681 h 1.157112 l 0.244593,-1.79681 h 0.903112 z"
                   style="font-style:normal;font-variant:normal;font-weight:normal;font-stretch:normal;font-size:7.05556px;font-family:Timmana;-inkscape-font-specification:Timmana;fill:#ffffff;stroke-width:0.264583;fill-opacity:1"
                   id="path993" />
                <path
                   d="m 98.702342,105.30824 0.602074,-4.27096 h 2.304814 l -0.11289,0.73378 h -1.38289 l -0.141108,0.98777 h 1.053628 l -0.0941,0.68674 h -1.063039 l -0.159926,1.12889 h 1.401705 l -0.0941,0.73378 z"
                   style="font-style:normal;font-variant:normal;font-weight:normal;font-stretch:normal;font-size:7.05556px;font-family:Timmana;-inkscape-font-specification:Timmana;fill:#ffffff;stroke-width:0.264583;fill-opacity:1"
                   id="path995" />
                <path
                   d="m 104.07397,101.87454 q -0.0658,0.15992 -0.15052,0.40452 -0.0847,0.24459 -0.18815,0.52681 -0.10348,0.27282 -0.21637,0.57385 -0.10348,0.29163 -0.21637,0.57386 h 0.92193 q -0.0188,-0.28223 -0.047,-0.57386 -0.0282,-0.30103 -0.047,-0.57385 -0.0188,-0.28222 -0.0376,-0.52681 -0.0188,-0.2446 -0.0188,-0.40452 z m -0.40452,-0.83726 h 1.08186 l 0.56444,4.27096 h -0.95015 l -0.0847,-0.74318 h -1.19474 l -0.30103,0.74318 h -0.90312 z"
                   style="font-style:normal;font-variant:normal;font-weight:normal;font-stretch:normal;font-size:7.05556px;font-family:Timmana;-inkscape-font-specification:Timmana;fill:#ffffff;stroke-width:0.264583;fill-opacity:1"
                   id="path997" />
                <path
                   d="m 105.62619,105.30824 0.60208,-4.27096 h 0.90311 l -0.508,3.53718 h 1.27 l -0.15993,0.73378 z"
                   style="font-style:normal;font-variant:normal;font-weight:normal;font-stretch:normal;font-size:7.05556px;font-family:Timmana;-inkscape-font-specification:Timmana;fill:#ffffff;stroke-width:0.264583;fill-opacity:1"
                   id="path999" />
                <path
                   d="M 110.82848,101.77106 H 109.963 l -0.49859,3.53718 h -0.90311 l 0.48918,-3.53718 h -0.87489 l 0.0941,-0.73378 h 2.6717 z"
                   style="font-style:normal;font-variant:normal;font-weight:normal;font-stretch:normal;font-size:7.05556px;font-family:Timmana;-inkscape-font-specification:Timmana;fill:#ffffff;stroke-width:0.264583;fill-opacity:1"
                   id="path1001" />
                <path
                   d="m 114.18692,105.30824 h -0.89371 l 0.254,-1.75918 h -1.16652 l -0.24459,1.75918 h -0.90311 l 0.60207,-4.27096 h 0.90312 l -0.25401,1.79681 h 1.15712 l 0.24459,-1.79681 h 0.90311 z"
                   style="font-style:normal;font-variant:normal;font-weight:normal;font-stretch:normal;font-size:7.05556px;font-family:Timmana;-inkscape-font-specification:Timmana;fill:#ffffff;stroke-width:0.264583;fill-opacity:1"
                   id="path1003" />
              </g>
            </g>
            <g
               id="g1068"
               transform="matrix(0.03838152,0,0,-0.03838152,-116.57997,111.97737)"
               style="fill-rule:nonzero">
              <path
                 d="m 3221.22,0.00390625 c -0.1,0 -0.21,0 -0.31,0 C 3495.9,0.164063 3718.76,223.141 3718.76,498.168 v 0 0 0 0 c 0,0.176 0,0.359 0,0.539 0,0.031 0,0.059 0,0.09 0,0.008 0,0.016 0,0.023 0,0.172 0,0.344 0,0.512 0,0.023 0,0.047 0,0.07 0,0.188 0,0.356 0,0.543 0,0.004 0,0.008 0,0.008 0,0.195 -0.01,0.391 -0.01,0.582 0,0.008 0,0.016 0,0.024 -0.59,125.953 -47.95,240.832 -125.57,328.238 -12.41,-3.391 -25,-7.152 -37.77,-11.274 -113.44,-36.628 -182.48,-52.109 -232.3,-52.113 -68.58,-0.004 -100.76,29.32 -162.32,73.192 -38.64,27.531 -84.31,37.91 -133.16,37.91 -50.87,0 -105.19,-11.246 -158.66,-26.086 90.14,90.148 214.68,145.902 352.25,145.902 275.13,0 498.17,-223.035 498.17,-498.16 0,-275.129 -223.04,-498.16409375 -498.17,-498.16409375"
                 style="fill:#f3f3f3;fill-opacity:1;fill-rule:nonzero;stroke:none"
                 id="path26" />
              <path
                 d="m 2722.43,498.168 v 0 c 0,0.176 0,0.34 0,0.516 0,-0.172 0,-0.344 0,-0.516 m 0,0.621 c 0.17,137.199 55.8,261.402 145.68,351.399 0.29,0.078 0.57,0.16 0.86,0.238 -74.31,-74.305 -125.25,-171.961 -140.86,-281.028 -0.2,-0.023 -0.4,-0.05 -0.6,-0.074 -3.29,-23.047 -5.05,-46.59 -5.08,-70.535"
                 style="fill:#c3aeca;fill-opacity:1;fill-rule:nonzero;stroke:none"
                 id="path28" />
              <path
                 d="m 3718.76,498.168 v 0 c 0,0.18 0,0.359 0,0.539 0,-0.18 0,-0.363 0,-0.539 v 0 m 0,0.652 c 0,0.024 0,0.043 0,0.067 0,0.148 0,0.297 0,0.445 0,-0.168 0,-0.34 0,-0.512 m 0,0.582 c 0,0.18 0,0.364 0,0.543 0,-0.187 0,-0.355 0,-0.543 m 0,0.551 c 0,0.195 -0.01,0.391 -0.01,0.582 0,-0.191 0.01,-0.387 0.01,-0.582 m -0.01,0.606 c -0.11,24.586 -2.02,48.75 -5.58,72.367 -19.03,-10.903 -38.48,-23 -58.26,-35.926 -76.28,4.93 -162.71,37.043 -256.69,113.543 -74.06,60.289 -146.98,80.578 -211.46,80.578 -112.87,0 -199.95,-62.105 -222.49,-80.578 -20.24,-16.578 -112.73,-65.406 -236.16,-81.145 15.61,109.067 66.55,206.723 140.86,281.028 53.47,14.84 107.79,26.086 158.66,26.086 48.85,0 94.52,-10.379 133.16,-37.91 61.56,-43.872 93.74,-73.196 162.32,-73.192 49.82,0.004 118.86,15.485 232.3,52.113 12.77,4.122 25.36,7.883 37.77,11.274 77.62,-87.406 124.98,-202.285 125.57,-328.238"
                 style="fill:#f0edf1;fill-opacity:1;fill-rule:nonzero;stroke:none"
                 id="path30" />
              <path
                 d="m 3220.2,0.00390625 c -0.03,0 -0.1,0 -0.13,0 0.05,0 0.08,0 0.13,0"
                 style="fill:#845f96;fill-opacity:1;fill-rule:nonzero;stroke:none"
                 id="path32" />
              <path
                 d="m 3219.81,0.00390625 c -0.07,0 -0.14,0 -0.2,0 0.06,0 0.14,0 0.2,0"
                 style="fill:#845f96;fill-opacity:1;fill-rule:nonzero;stroke:none"
                 id="path34" />
              <path
                 d="m 3219.42,0.00390625 c -0.07,0 -0.13,0 -0.2,0 0.08,0 0.12,0 0.2,0"
                 style="fill:#845f96;fill-opacity:1;fill-rule:nonzero;stroke:none"
                 id="path36" />
              <path
                 d="m 3219.02,0.00390625 c -0.07,0 -0.12,0 -0.19,0 0.07,0 0.13,0 0.19,0"
                 style="fill:#845f96;fill-opacity:1;fill-rule:nonzero;stroke:none"
                 id="path38" />
              <path
                 d="m 3218.62,0.0078125 c -0.06,0 -0.11,0 -0.17,0 0.06,0 0.11,0 0.17,0"
                 style="fill:#845f96;fill-opacity:1;fill-rule:nonzero;stroke:none"
                 id="path40" />
              <path
                 d="m 3218.23,0.0078125 c -0.07,0 -0.12,0 -0.19,0 0.07,0 0.12,0 0.19,0"
                 style="fill:#845f96;fill-opacity:1;fill-rule:nonzero;stroke:none"
                 id="path42" />
              <path
                 d="m 3217.84,0.0117188 c -0.07,0 -0.13,0 -0.19,0 0.06,0 0.12,0 0.19,0"
                 style="fill:#845f96;fill-opacity:1;fill-rule:nonzero;stroke:none"
                 id="path44" />
              <path
                 d="m 3217.44,0.0117188 c -0.05,0 -0.14,0 -0.19,0 0.06,0 0.13,0 0.19,0"
                 style="fill:#845f96;fill-opacity:1;fill-rule:nonzero;stroke:none"
                 id="path46" />
              <path
                 d="m 3217.05,0.015625 c -0.07,0 -0.12,0 -0.18,0 0.04,0 0.13,0 0.18,0"
                 style="fill:#845f96;fill-opacity:1;fill-rule:nonzero;stroke:none"
                 id="path48" />
              <path
                 d="m 3216.65,0.015625 c -0.07,0.0039063 -0.12,0.0039063 -0.18,0.0039063 0.06,0 0.11,0 0.18,-0.0039063"
                 style="fill:#845f96;fill-opacity:1;fill-rule:nonzero;stroke:none"
                 id="path50" />
              <path
                 d="m 3216.26,0.0195313 c -0.07,0 -0.12,0.0039062 -0.19,0.0039062 0.07,0 0.13,-0.0039062 0.19,-0.0039062"
                 style="fill:#845f96;fill-opacity:1;fill-rule:nonzero;stroke:none"
                 id="path52" />
              <path
                 d="m 3215.87,0.0234375 c -0.07,0 -0.14,0 -0.2,0.0039063 0.06,0 0.14,-0.0039063 0.2,-0.0039063"
                 style="fill:#845f96;fill-opacity:1;fill-rule:nonzero;stroke:none"
                 id="path54" />
              <path
                 d="m 3215.48,0.0273438 c -0.07,0 -0.13,0 -0.19,0.0039062 0.06,-0.0039062 0.12,-0.0039062 0.19,-0.0039062"
                 style="fill:#845f96;fill-opacity:1;fill-rule:nonzero;stroke:none"
                 id="path56" />
              <path
                 d="m 3215.07,0.03125 c -0.05,0 -0.13,0.0039063 -0.18,0.0039063 0.06,0 0.12,-0.0039063 0.18,-0.0039063"
                 style="fill:#845f96;fill-opacity:1;fill-rule:nonzero;stroke:none"
                 id="path58" />
              <path
                 d="m 3214.68,0.0351563 c -0.05,0 -0.13,0.0039062 -0.18,0.0039062 0.06,0 0.12,-0.0039062 0.18,-0.0039062"
                 style="fill:#845f96;fill-opacity:1;fill-rule:nonzero;stroke:none"
                 id="path60" />
              <path
                 d="m 3214.29,0.0429688 c -0.06,0 -0.13,0 -0.2,0 0.07,0 0.14,0 0.2,0"
                 style="fill:#845f96;fill-opacity:1;fill-rule:nonzero;stroke:none"
                 id="path62" />
              <path
                 d="m 3213.91,0.046875 c -0.07,0 -0.14,0 -0.2,0.0039063 0.06,-0.0039063 0.14,-0.0039063 0.2,-0.0039063"
                 style="fill:#845f96;fill-opacity:1;fill-rule:nonzero;stroke:none"
                 id="path64" />
              <path
                 d="m 3213.5,0.0507813 c -0.06,0.0039062 -0.12,0.0039062 -0.19,0.0039062 0.07,0 0.13,0 0.19,-0.0039062"
                 style="fill:#845f96;fill-opacity:1;fill-rule:nonzero;stroke:none"
                 id="path66" />
              <path
                 d="m 3213.09,0.0585938 c -0.05,0 -0.11,0 -0.16,0 0.05,0 0.11,0 0.16,0"
                 style="fill:#845f96;fill-opacity:1;fill-rule:nonzero;stroke:none"
                 id="path68" />
              <path
                 d="m 3212.71,0.0625 c -0.07,0 -0.12,0.0039063 -0.19,0.0039063 0.07,0 0.12,-0.0039063 0.19,-0.0039063"
                 style="fill:#845f96;fill-opacity:1;fill-rule:nonzero;stroke:none"
                 id="path70" />
              <path
                 d="m 3212.35,0.0703125 c -0.07,0 -0.15,0 -0.22,0.0039063 0.08,-0.0039063 0.14,-0.0039063 0.22,-0.0039063"
                 style="fill:#845f96;fill-opacity:1;fill-rule:nonzero;stroke:none"
                 id="path72" />
              <path
                 d="m 3211.96,0.0742188 c -0.11,0.0039062 -0.24,0.0039062 -0.36,0.0078125 0.13,-0.0039063 0.24,-0.0039063 0.36,-0.0078125"
                 style="fill:#845f96;fill-opacity:1;fill-rule:nonzero;stroke:none"
                 id="path74" />
              <path
                 d="m 3211.35,0.0859375 c -0.04,0 -0.09,0.0039063 -0.12,0.0039063 0.04,0 0.07,-0.0039063 0.12,-0.0039063"
                 style="fill:#845f96;fill-opacity:1;fill-rule:nonzero;stroke:none"
                 id="path76" />
              <path
                 d="m 3210.97,0.09375 c -0.07,0 -0.15,0.0039063 -0.22,0.0039063 0.08,0 0.14,-0.0039063 0.22,-0.0039063"
                 style="fill:#845f96;fill-opacity:1;fill-rule:nonzero;stroke:none"
                 id="path78-3" />
              <path
                 d="m 3210.57,0.101563 c -0.05,0 -0.14,0.003906 -0.19,0.003906 0.06,0 0.12,-0.003906 0.19,-0.003906"
                 style="fill:#845f96;fill-opacity:1;fill-rule:nonzero;stroke:none"
                 id="path80" />
              <path
                 d="m 3210.18,0.109375 c -0.07,0 -0.13,0.003906 -0.2,0.003906 0.06,0 0.14,-0.003906 0.2,-0.003906"
                 style="fill:#845f96;fill-opacity:1;fill-rule:nonzero;stroke:none"
                 id="path82" />
              <path
                 d="m 3209.78,0.117188 c -0.07,0 -0.13,0.003906 -0.2,0.003906 0.07,0 0.14,-0.003906 0.2,-0.003906"
                 style="fill:#845f96;fill-opacity:1;fill-rule:nonzero;stroke:none"
                 id="path84" />
              <path
                 d="m 3209.4,0.125 c -0.07,0.003906 -0.14,0.003906 -0.21,0.003906 0.07,0 0.14,0 0.21,-0.003906"
                 style="fill:#845f96;fill-opacity:1;fill-rule:nonzero;stroke:none"
                 id="path86-6" />
              <path
                 d="m 3209,0.136719 c -0.07,0 -0.13,0 -0.19,0.003906 0.06,-0.003906 0.12,-0.003906 0.19,-0.003906"
                 style="fill:#845f96;fill-opacity:1;fill-rule:nonzero;stroke:none"
                 id="path88-7" />
              <path
                 d="m 3208.61,0.144531 c -0.07,0 -0.14,0.003907 -0.2,0.003907 0.06,0 0.14,-0.003907 0.2,-0.003907"
                 style="fill:#845f96;fill-opacity:1;fill-rule:nonzero;stroke:none"
                 id="path90-5" />
              <path
                 d="m 3208.22,0.152344 c -0.09,0.003906 -0.13,0.003906 -0.22,0.003906 0.08,0 0.14,0 0.22,-0.003906"
                 style="fill:#845f96;fill-opacity:1;fill-rule:nonzero;stroke:none"
                 id="path92" />
              <path
                 d="m 3207.84,0.160156 c -0.09,0.003907 -0.14,0.003907 -0.23,0.007813 0.08,-0.003906 0.15,-0.003906 0.23,-0.007813"
                 style="fill:#845f96;fill-opacity:1;fill-rule:nonzero;stroke:none"
                 id="path94-3" />
              <path
                 d="m 3207.44,0.171875 c -0.07,0.003906 -0.15,0.003906 -0.22,0.007813 0.07,-0.003907 0.15,-0.003907 0.22,-0.007813"
                 style="fill:#845f96;fill-opacity:1;fill-rule:nonzero;stroke:none"
                 id="path96-5" />
              <path
                 d="m 3207.05,0.183594 c -0.06,0 -0.15,0.003906 -0.22,0.003906 0.07,0 0.16,-0.003906 0.22,-0.003906"
                 style="fill:#845f96;fill-opacity:1;fill-rule:nonzero;stroke:none"
                 id="path98" />
              <path
                 d="m 3206.66,0.195313 c -0.07,0 -0.16,0.003906 -0.22,0.003906 0.08,-0.003906 0.14,-0.003906 0.22,-0.003906"
                 style="fill:#845f96;fill-opacity:1;fill-rule:nonzero;stroke:none"
                 id="path100" />
              <path
                 d="m 3206.28,0.203125 c -0.09,0.003906 -0.15,0.003906 -0.24,0.007813 0.08,-0.003907 0.16,-0.003907 0.24,-0.007813"
                 style="fill:#845f96;fill-opacity:1;fill-rule:nonzero;stroke:none"
                 id="path102" />
              <path
                 d="m 3205.88,0.214844 c -0.08,0.003906 -0.14,0.003906 -0.23,0.007812 0.08,-0.003906 0.15,-0.003906 0.23,-0.007812"
                 style="fill:#845f96;fill-opacity:1;fill-rule:nonzero;stroke:none"
                 id="path104" />
              <path
                 d="m 3205.5,0.226563 c -0.07,0.003906 -0.17,0.003906 -0.23,0.007812 0.08,-0.003906 0.15,-0.003906 0.23,-0.007812"
                 style="fill:#845f96;fill-opacity:1;fill-rule:nonzero;stroke:none"
                 id="path106" />
              <path
                 d="m 3205.1,0.238281 c -0.07,0.003907 -0.16,0.003907 -0.23,0.007813 0.08,-0.003906 0.15,-0.003906 0.23,-0.007813"
                 style="fill:#845f96;fill-opacity:1;fill-rule:nonzero;stroke:none"
                 id="path108" />
              <path
                 d="m 3204.74,0.25 c -0.08,0.003906 -0.18,0.003906 -0.26,0.007813 0.09,-0.003907 0.17,-0.003907 0.26,-0.007813"
                 style="fill:#845f96;fill-opacity:1;fill-rule:nonzero;stroke:none"
                 id="path110" />
              <path
                 d="m 3204.36,0.261719 c -0.1,0.003906 -0.18,0.007812 -0.28,0.007812 0.1,0 0.19,-0.003906 0.28,-0.007812"
                 style="fill:#845f96;fill-opacity:1;fill-rule:nonzero;stroke:none"
                 id="path112" />
              <path
                 d="m 3204.01,0.273438 c -0.12,0.003906 -0.2,0.007812 -0.31,0.007812 0.11,0 0.2,-0.003906 0.31,-0.007812"
                 style="fill:#845f96;fill-opacity:1;fill-rule:nonzero;stroke:none"
                 id="path114" />
              <path
                 d="m 3203.62,0.285156 c -0.86,0.03125 -1.72,0.0625 -2.58,0.09375 0.86,-0.03125 1.72,-0.0625 2.58,-0.09375"
                 style="fill:#845f96;fill-opacity:1;fill-rule:nonzero;stroke:none"
                 id="path116" />
              <path
                 d="m 3201.01,0.378906 c -0.1,0.003907 -0.23,0.011719 -0.33,0.015625 0.11,-0.003906 0.22,-0.007812 0.33,-0.015625"
                 style="fill:#845f96;fill-opacity:1;fill-rule:nonzero;stroke:none"
                 id="path118" />
              <path
                 d="m 3200.62,0.394531 c -0.12,0.003907 -0.21,0.007813 -0.33,0.015625 0.11,-0.007812 0.21,-0.011718 0.33,-0.015625"
                 style="fill:#845f96;fill-opacity:1;fill-rule:nonzero;stroke:none"
                 id="path120" />
              <path
                 d="m 3200.23,0.410156 c -0.1,0.003907 -0.21,0.007813 -0.31,0.011719 0.11,-0.003906 0.2,-0.007812 0.31,-0.011719"
                 style="fill:#845f96;fill-opacity:1;fill-rule:nonzero;stroke:none"
                 id="path122" />
              <path
                 d="m 3199.84,0.425781 c -0.1,0.003907 -0.19,0.007813 -0.29,0.011719 0.11,-0.003906 0.18,-0.007812 0.29,-0.011719"
                 style="fill:#845f96;fill-opacity:1;fill-rule:nonzero;stroke:none"
                 id="path124" />
              <path
                 d="m 3199.45,0.441406 c -0.09,0.003907 -0.18,0.007813 -0.27,0.011719 0.08,-0.003906 0.19,-0.007812 0.27,-0.011719"
                 style="fill:#845f96;fill-opacity:1;fill-rule:nonzero;stroke:none"
                 id="path126" />
              <path
                 d="m 3199.05,0.460938 c -0.08,0.003906 -0.18,0.007812 -0.27,0.011718 0.1,-0.003906 0.18,-0.007812 0.27,-0.011718"
                 style="fill:#845f96;fill-opacity:1;fill-rule:nonzero;stroke:none"
                 id="path128" />
              <path
                 d="m 3198.67,0.476563 c -0.1,0.003906 -0.18,0.007812 -0.28,0.011718 0.1,-0.003906 0.19,-0.007812 0.28,-0.011718"
                 style="fill:#845f96;fill-opacity:1;fill-rule:nonzero;stroke:none"
                 id="path130" />
              <path
                 d="M 3198.29,0.492188 C 3198.19,0.496094 3198.1,0.5 3198,0.507813 3198.09,0.5 3198.2,0.496094 3198.29,0.492188"
                 style="fill:#845f96;fill-opacity:1;fill-rule:nonzero;stroke:none"
                 id="path132" />
              <path
                 d="m 3197.91,0.511719 c -0.1,0.003906 -0.19,0.007812 -0.29,0.011719 0.09,-0.003907 0.19,-0.007813 0.29,-0.011719"
                 style="fill:#845f96;fill-opacity:1;fill-rule:nonzero;stroke:none"
                 id="path134" />
              <path
                 d="m 3197.52,0.527344 c -0.1,0.003906 -0.2,0.007812 -0.3,0.015625 0.11,-0.007813 0.19,-0.011719 0.3,-0.015625"
                 style="fill:#845f96;fill-opacity:1;fill-rule:nonzero;stroke:none"
                 id="path136" />
              <path
                 d="m 3197.16,0.542969 c -0.1,0.003906 -0.23,0.011719 -0.33,0.015625 0.11,-0.003906 0.22,-0.007813 0.33,-0.015625"
                 style="fill:#845f96;fill-opacity:1;fill-rule:nonzero;stroke:none"
                 id="path138" />
              <path
                 d="m 3196.78,0.5625 c -0.1,0.003906 -0.24,0.011719 -0.34,0.015625 0.11,-0.007812 0.22,-0.011719 0.34,-0.015625"
                 style="fill:#845f96;fill-opacity:1;fill-rule:nonzero;stroke:none"
                 id="path140" />
              <path
                 d="m 3196.41,0.578125 c -0.12,0.007813 -0.22,0.011719 -0.34,0.015625 0.13,-0.003906 0.21,-0.007812 0.34,-0.015625"
                 style="fill:#845f96;fill-opacity:1;fill-rule:nonzero;stroke:none"
                 id="path142" />
              <path
                 d="m 2722.43,498.684 c 0,0.035 0,0.07 0,0.105 0,-0.031 0,-0.07 0,-0.105"
                 style="fill:#ad92b7;fill-opacity:1;fill-rule:nonzero;stroke:none"
                 id="path144" />
              <path
                 d="M 3196,0.597656 C 2932.29,13.418 2722.43,231.285 2722.43,498.168 c 0,0.172 0,0.344 0,0.516 0,0.035 0,0.074 0,0.105 0.03,23.945 1.79,47.488 5.08,70.535 0.2,0.024 0.4,0.051 0.6,0.074 -3.33,-23.257 -5.05,-47.05 -5.05,-71.23 0,-11.672 0.4,-23.27 1.19,-34.738 -0.19,-0.082 -0.39,-0.172 -0.58,-0.254 C 2741.08,212.48 2943.92,12.8555 3196,0.597656"
                 style="fill:#845f96;fill-opacity:1;fill-rule:nonzero;stroke:none"
                 id="path146" />
              <path
                 d="m 3346.86,364.965 c -109.05,-0.008 -188.78,103.574 -291,138.113 -35.25,11.906 -70.47,17.598 -106.77,17.598 -68.53,0 -140.92,-20.262 -224.84,-57.246 -0.79,11.468 -1.19,23.066 -1.19,34.738 0,24.18 1.72,47.973 5.05,71.23 123.43,15.739 215.92,64.567 236.16,81.145 22.54,18.473 109.62,80.578 222.49,80.578 64.48,0 137.4,-20.289 211.46,-80.578 93.98,-76.5 180.41,-108.613 256.69,-113.543 -57.12,-37.34 -116.9,-81.582 -176.69,-123.863 -49.17,-34.785 -92.16,-48.172 -131.36,-48.172"
                 style="fill:#e4dfe7;fill-opacity:1;fill-rule:nonzero;stroke:none"
                 id="path148" />
              <path
                 d="m 3718.76,498.797 c 0,0.004 0,0.004 0,0.004 0,0.008 0,0.012 0,0.019 0,-0.007 0,-0.015 0,-0.023"
                 style="fill:#916fa1;fill-opacity:1;fill-rule:nonzero;stroke:none"
                 id="path150" />
              <path
                 d="m 3718.76,498.801 c 0,0.027 0,0.058 0,0.086 0,-0.024 0,-0.043 0,-0.067 0,-0.007 0,-0.011 0,-0.019"
                 style="fill:#704885;fill-opacity:1;fill-rule:nonzero;stroke:none"
                 id="path152" />
              <path
                 d="m 3220.6,0.00390625 c -0.13,0 -0.27,0 -0.4,0 0.13,0 0.26,0 0.4,0 0.1,0 0.21,0 0.31,0 v 0 c -0.1,0 -0.21,0 -0.31,0 m -0.53,0 c -0.08,0 -0.18,0 -0.26,0 0.1,0 0.16,0 0.26,0 m -0.46,0 c -0.07,0 -0.13,0 -0.19,0 0.05,0 0.14,0 0.19,0 m -0.39,0 c -0.06,0 -0.13,0 -0.2,0 0.07,0 0.13,0 0.2,0 m -0.39,0 c -0.06,0.00390625 -0.14,0.00390625 -0.21,0.00390625 0.07,0 0.15,0 0.21,-0.00390625 m -0.38,0.00390625 c -0.07,0 -0.16,0 -0.22,0 0.07,0 0.15,0 0.22,0 m -0.41,0 c -0.06,0 -0.14,0 -0.2,0.0039063 0.06,-0.0039063 0.14,-0.0039063 0.2,-0.0039063 m -0.39,0.0039063 c -0.07,0 -0.14,0 -0.21,0 0.07,0 0.14,0 0.21,0 m -0.4,0 c -0.08,0.0039062 -0.12,0.0039062 -0.2,0.0039062 0.06,0 0.13,0 0.2,-0.0039062 m -0.38,0.0039062 c -0.08,0 -0.14,0 -0.22,0 0.07,0 0.15,0 0.22,0 m -0.4,0.0039063 c -0.07,0 -0.15,0 -0.21,0 0.07,0 0.14,0 0.21,0 m -0.4,0.0039062 c -0.06,0 -0.13,0 -0.2,0 0.07,0 0.13,0 0.2,0 m -0.4,0.0039063 c -0.07,0 -0.13,0 -0.19,0 0.07,0 0.12,0 0.19,0 m -0.38,0.0039062 c -0.08,0 -0.14,0 -0.22,0 0.07,0 0.15,0 0.22,0 m -0.4,0.0039063 c -0.07,0 -0.14,0 -0.21,0 0.09,0 0.12,0 0.21,0 m -0.39,0.0039062 c -0.07,0 -0.14,0 -0.21,0.0039063 0.07,-0.0039063 0.14,-0.0039063 0.21,-0.0039063 m -0.41,0.0039063 c -0.06,0.0039062 -0.12,0.0039062 -0.18,0.0039062 0.07,0 0.12,0 0.18,-0.0039062 m -0.38,0.0078125 c -0.07,0 -0.14,0 -0.21,0 0.07,0 0.14,0 0.21,0 m -0.4,0.0039062 c -0.08,0 -0.14,0 -0.22,0.0039063 0.06,0 0.16,-0.0039063 0.22,-0.0039063 m -0.38,0.0039063 C 3212.85,0.0625 3212.79,0.0625 3212.71,0.0625 c 0.08,0 0.13,0 0.22,-0.0039062 m -0.41,0.0078125 c -0.05,0 -0.13,0 -0.17,0.0039062 0.05,-0.0039062 0.12,-0.0039062 0.17,-0.0039062 m -0.39,0.0078125 c -0.04,0 -0.12,0 -0.17,0 0.07,0 0.11,0 0.17,0 m -0.53,0.0078125 c -0.08,0 -0.17,0.0039062 -0.25,0.0039062 0.08,0 0.16,-0.0039062 0.25,-0.0039062 m -0.37,0.0078125 c -0.08,0 -0.18,0.0039062 -0.26,0.0039062 0.1,-0.0039062 0.15,-0.0039062 0.26,-0.0039062 m -0.48,0.0078125 c -0.04,0 -0.14,0.0039067 -0.18,0.0039067 0.06,0 0.12,-0.0039067 0.18,-0.0039067 m -0.37,0.0078127 c -0.08,0 -0.12,0 -0.2,0.003906 0.07,0 0.13,-0.003906 0.2,-0.003906 m -0.4,0.007812 c -0.06,0 -0.13,0.003907 -0.2,0.003907 0.07,0 0.13,-0.003907 0.2,-0.003907 m -0.4,0.007813 C 3209.52,0.125 3209.46,0.125 3209.4,0.125 c 0.06,0 0.12,0 0.18,-0.003906 m -0.39,0.007812 c -0.06,0.003907 -0.13,0.003907 -0.19,0.007813 0.06,-0.003906 0.12,-0.003906 0.19,-0.007813 m -0.38,0.011719 c -0.07,0 -0.14,0 -0.2,0.003906 0.07,-0.003906 0.13,-0.003906 0.2,-0.003906 m -0.4,0.007813 c -0.07,0 -0.13,0.003906 -0.19,0.003906 0.05,0 0.14,-0.003906 0.19,-0.003906 M 3208,0.15625 c -0.04,0.003906 -0.11,0.003906 -0.16,0.003906 0.05,0 0.11,0 0.16,-0.003906 m -0.39,0.011719 c -0.06,0.003906 -0.11,0.003906 -0.17,0.003906 0.05,0 0.12,-0.003906 0.17,-0.003906 m -0.39,0.011719 c -0.06,0 -0.1,0 -0.17,0.003906 0.07,-0.003906 0.11,-0.003906 0.17,-0.003906 m -0.39,0.007812 c -0.06,0.003906 -0.11,0.003906 -0.17,0.007813 0.06,-0.003907 0.11,-0.003907 0.17,-0.007813 m -0.39,0.011719 c -0.05,0 -0.12,0.003906 -0.16,0.003906 0.05,0 0.11,-0.003906 0.16,-0.003906 m -0.4,0.011719 c -0.04,0 -0.11,0.003906 -0.16,0.003906 0.05,0 0.11,-0.003906 0.16,-0.003906 m -0.39,0.011718 c -0.04,0 -0.1,0.003907 -0.15,0.003907 0.05,0 0.1,-0.003907 0.15,-0.003907 m -0.38,0.011719 c -0.05,0 -0.12,0.003906 -0.17,0.003906 0.07,0 0.1,-0.003906 0.17,-0.003906 m -0.4,0.011719 c -0.05,0 -0.08,0 -0.13,0.003906 0.05,-0.003906 0.08,-0.003906 0.13,-0.003906 m -0.39,0.011719 c -0.04,0 -0.09,0.003906 -0.12,0.003906 0.03,0 0.08,-0.003906 0.12,-0.003906 m -0.4,0.011718 c -0.01,0 -0.05,0.003907 -0.07,0.003907 0.02,0 0.05,-0.003907 0.07,-0.003907 m -0.38,0.011719 c -0.02,0.003906 -0.06,0.003906 -0.08,0.003906 0.02,0 0.06,0 0.08,-0.003906 m -2.66,0.097656 c -0.02,0 -0.02,0 -0.03,0 0.01,0 0.01,0 0.03,0 m -0.36,0.015625 c -0.01,0 -0.05,0 -0.06,0 0.01,0 0.05,0 0.06,0 m -0.39,0.015625 c -0.02,0 -0.04,0 -0.06,0 0.02,0 0.04,0 0.06,0 m -0.37,0.011719 c -0.02,0.003906 -0.06,0.003906 -0.08,0.003906 0.04,0 0.05,0 0.08,-0.003906 m -0.37,0.015625 c -0.04,0.003906 -0.07,0.003906 -0.1,0.003906 0.03,0 0.06,0 0.1,-0.003906 m -0.37,0.015625 c -0.04,0.003906 -0.08,0.003906 -0.13,0.007813 0.05,-0.003907 0.08,-0.003907 0.13,-0.007813 m -0.4,0.019531 c -0.03,0 -0.08,0.003907 -0.11,0.003907 0.04,0 0.08,-0.003907 0.11,-0.003907 m -0.39,0.015625 c -0.03,0 -0.07,0.003907 -0.1,0.003907 0.04,0 0.07,-0.003907 0.1,-0.003907 M 3198,0.507813 c -0.03,0 -0.06,0 -0.09,0.003906 0.03,-0.003906 0.05,-0.003906 0.09,-0.003906 m -0.38,0.015625 c -0.03,0 -0.07,0.003906 -0.1,0.003906 0.04,0 0.07,-0.003906 0.1,-0.003906 m -0.4,0.019531 c -0.02,0 -0.05,0 -0.06,0 0.02,0 0.04,0 0.06,0 m -0.39,0.015625 c -0.01,0 -0.04,0.003906 -0.05,0.003906 0.03,-0.003906 0.02,0 0.05,-0.003906 m -0.39,0.019531 h -0.03 c 0.02,0 0.01,0 0.03,0 m -0.37,0.015625 c -0.02,0.003906 -0.06,0.003906 -0.07,0.003906 0.01,0 0.05,0 0.07,-0.003906"
                 style="fill:#7f5a92;fill-opacity:1;fill-rule:nonzero;stroke:none"
                 id="path154" />
              <path
                 d="m 3718.76,498.707 c 0,0.031 0,0.047 0,0.078 0,0.004 0,0.008 0,0.012 0,-0.031 0,-0.059 0,-0.09"
                 style="fill:#6d4682;fill-opacity:1;fill-rule:nonzero;stroke:none"
                 id="path156" />
              <path
                 d="m 3718.76,498.168 c 0,0.203 0,0.41 0,0.617 0,-0.031 0,-0.047 0,-0.078 0,-0.18 0,-0.359 0,-0.539"
                 style="fill:#58306e;fill-opacity:1;fill-rule:nonzero;stroke:none"
                 id="path158" />
              <path
                 d="m 3718.76,499.332 c 0,0.023 0,0.047 0,0.07 0,-0.023 0,-0.047 0,-0.07 m 0,0.613 v 0.008 c 0,0 0,-0.004 0,-0.008 m -0.01,0.59 c 0,0.008 0,0.016 0,0.024 0,-0.008 0,-0.016 0,-0.024"
                 style="fill:#6d4682;fill-opacity:1;fill-rule:nonzero;stroke:none"
                 id="path160" />
              <path
                 d="m 3718.76,498.887 c -0.02,13.484 -0.6,26.84 -1.67,40.054 -13.3,-1.711 -26.99,-2.625 -41.04,-2.625 -6.96,0 -14.01,0.227 -21.14,0.684 19.78,12.926 39.23,25.023 58.26,35.926 3.56,-23.617 5.47,-47.781 5.58,-72.367 0,-0.008 0,-0.016 0,-0.024 0,-0.191 0.01,-0.387 0.01,-0.582 v -0.008 c 0,-0.179 0,-0.363 0,-0.543 0,-0.023 0,-0.047 0,-0.07 0,-0.148 0,-0.297 0,-0.445"
                 style="fill:#e6d8ee;fill-opacity:1;fill-rule:nonzero;stroke:none"
                 id="path162" />
              <path
                 d="m 3718.76,498.785 v 0.016 c 0,0 0,0 0,-0.004 0,-0.004 0,-0.008 0,-0.012"
                 style="fill:#512b68;fill-opacity:1;fill-rule:nonzero;stroke:none"
                 id="path164" />
              <path
                 d="m 3220.6,0.00390625 c -0.14,0 -0.27,0 -0.4,0 -0.05,0 -0.08,0 -0.13,0 -0.1,0 -0.16,0 -0.26,0 -0.06,0 -0.14,0 -0.2,0 -0.05,0 -0.14,0 -0.19,0 -0.08,0 -0.12,0 -0.2,0 -0.07,0 -0.13,0 -0.2,0 -0.06,0 -0.12,0 -0.19,0 -0.06,0.00390625 -0.14,0.00390625 -0.21,0.00390625 -0.06,0 -0.11,0 -0.17,0 -0.07,0 -0.15,0 -0.22,0 -0.07,0 -0.12,0 -0.19,0 -0.06,0 -0.14,0 -0.2,0.0039063 -0.07,0 -0.13,0 -0.19,0 -0.07,0 -0.14,0 -0.21,0 -0.06,0 -0.13,0 -0.19,0 -0.07,0.0039062 -0.14,0.0039062 -0.2,0.0039062 -0.05,0 -0.14,0 -0.18,0 -0.07,0 -0.15,0 -0.22,0 -0.07,0.0039063 -0.12,0.0039063 -0.18,0.0039063 -0.07,0 -0.14,0 -0.21,0 -0.06,0 -0.12,0.0039062 -0.19,0.0039062 -0.07,0 -0.13,0 -0.2,0 -0.06,0 -0.14,0.0039063 -0.2,0.0039063 -0.07,0 -0.12,0 -0.19,0 -0.07,0 -0.13,0 -0.19,0.0039062 -0.07,0 -0.15,0 -0.22,0 -0.06,0 -0.12,0.0039063 -0.18,0.0039063 -0.09,0 -0.12,0 -0.21,0 -0.06,0 -0.12,0.0039062 -0.18,0.0039062 -0.07,0 -0.14,0 -0.21,0.0039063 -0.06,0 -0.13,0 -0.2,0 -0.06,0.0039062 -0.11,0.0039062 -0.18,0.0039062 -0.06,0 -0.14,0 -0.2,0.0039063 -0.07,0 -0.14,0 -0.21,0 -0.06,0.0039062 -0.12,0.0039062 -0.19,0.0039062 -0.06,0 -0.16,0.0039063 -0.22,0.0039063 -0.05,0 -0.11,0 -0.16,0 -0.09,0.0039062 -0.14,0.0039062 -0.22,0.0039062 -0.07,0 -0.12,0.0039063 -0.19,0.0039063 -0.05,0 -0.12,0 -0.17,0.0039062 -0.08,0 -0.14,0 -0.22,0.0039063 -0.06,0 -0.1,0 -0.17,0 -0.12,0.0039062 -0.23,0.0039062 -0.36,0.0078125 -0.09,0 -0.17,0.0039062 -0.25,0.0039062 -0.05,0 -0.08,0.0039063 -0.12,0.0039063 -0.11,0 -0.16,0 -0.26,0.0039062 -0.08,0 -0.14,0.0039063 -0.22,0.0039063 -0.06,0 -0.12,0.0039067 -0.18,0.0039067 -0.07,0 -0.13,0.003906 -0.19,0.003906 -0.07,0 -0.13,0.003906 -0.2,0.003906 -0.06,0 -0.14,0.003906 -0.2,0.003906 -0.07,0 -0.13,0.003907 -0.2,0.003907 -0.06,0 -0.13,0.003906 -0.2,0.003906 -0.06,0.003906 -0.12,0.003906 -0.18,0.003906 -0.07,0.003906 -0.14,0.003906 -0.21,0.003906 -0.07,0.003907 -0.13,0.003907 -0.19,0.007813 -0.07,0 -0.13,0 -0.19,0.003906 -0.07,0 -0.13,0 -0.2,0.003906 -0.06,0 -0.14,0.003907 -0.2,0.003907 -0.05,0 -0.14,0.003906 -0.19,0.003906 -0.08,0.003906 -0.14,0.003906 -0.22,0.003906 -0.05,0.003906 -0.11,0.003906 -0.16,0.003906 -0.08,0.003907 -0.15,0.003907 -0.23,0.007813 -0.05,0 -0.12,0.003906 -0.17,0.003906 -0.07,0.003906 -0.15,0.003906 -0.22,0.007813 -0.06,0 -0.1,0 -0.17,0.003906 -0.06,0 -0.15,0.003906 -0.22,0.003906 -0.06,0.003906 -0.11,0.003906 -0.17,0.007813 -0.08,0 -0.14,0 -0.22,0.003906 -0.05,0 -0.11,0.003906 -0.16,0.003906 -0.08,0.003906 -0.16,0.003906 -0.24,0.007813 -0.05,0 -0.11,0.003906 -0.16,0.003906 -0.08,0.003906 -0.15,0.003906 -0.23,0.007812 -0.05,0 -0.1,0.003907 -0.15,0.003907 -0.08,0.003906 -0.15,0.003906 -0.23,0.007812 -0.07,0 -0.1,0.003906 -0.17,0.003906 -0.08,0.003907 -0.15,0.003907 -0.23,0.007813 -0.05,0 -0.08,0 -0.13,0.003906 -0.09,0.003906 -0.17,0.003906 -0.26,0.007813 -0.04,0 -0.09,0.003906 -0.12,0.003906 -0.09,0.003906 -0.18,0.007812 -0.28,0.007812 -0.02,0 -0.05,0.003907 -0.07,0.003907 -0.11,0.003906 -0.2,0.007812 -0.31,0.007812 -0.02,0.003906 -0.06,0.003906 -0.08,0.003906 -0.86,0.03125 -1.72,0.0625 -2.58,0.09375 -0.02,0 -0.02,0 -0.03,0 -0.11,0.007813 -0.22,0.011719 -0.33,0.015625 -0.01,0 -0.05,0 -0.06,0 -0.12,0.003907 -0.22,0.007813 -0.33,0.015625 -0.02,0 -0.04,0 -0.06,0 -0.11,0.003907 -0.2,0.007813 -0.31,0.011719 -0.03,0.003906 -0.04,0.003906 -0.08,0.003906 -0.11,0.003907 -0.18,0.007813 -0.29,0.011719 -0.04,0.003906 -0.07,0.003906 -0.1,0.003906 -0.08,0.003907 -0.19,0.007813 -0.27,0.011719 -0.05,0.003906 -0.08,0.003906 -0.13,0.007813 -0.09,0.003906 -0.17,0.007812 -0.27,0.011718 -0.03,0 -0.07,0.003907 -0.11,0.003907 -0.09,0.003906 -0.18,0.007812 -0.28,0.011718 -0.03,0 -0.06,0.003907 -0.1,0.003907 -0.09,0.003906 -0.2,0.007812 -0.29,0.015625 -0.04,0 -0.06,0 -0.09,0.003906 -0.1,0.003906 -0.2,0.007812 -0.29,0.011719 -0.03,0 -0.06,0.003906 -0.1,0.003906 -0.11,0.003906 -0.19,0.007812 -0.3,0.015625 -0.02,0 -0.04,0 -0.06,0 -0.11,0.007812 -0.22,0.011719 -0.33,0.015625 -0.03,0.003906 -0.02,0 -0.05,0.003906 -0.12,0.003906 -0.23,0.007813 -0.34,0.015625 -0.02,0 -0.01,0 -0.03,0 -0.13,0.007813 -0.21,0.011719 -0.34,0.015625 -0.02,0.003906 -0.06,0.003906 -0.07,0.003906 C 2943.92,12.8555 2741.08,212.48 2723.67,463.176 c 0.19,0.082 0.39,0.172 0.58,0.254 17.82,-258.832 233.33,-463.269844 496.66,-463.42609375 -0.1,0 -0.21,0 -0.31,0"
                 style="fill:#4c2663;fill-opacity:1;fill-rule:nonzero;stroke:none"
                 id="path166" />
              <path
                 d="M 3220.91,0.00390625 C 2957.58,0.160156 2742.07,204.598 2724.25,463.43 c 83.92,36.984 156.31,57.246 224.84,57.246 36.3,0 71.52,-5.692 106.77,-17.598 102.22,-34.539 181.95,-138.121 291,-138.113 39.2,0 82.19,13.387 131.36,48.172 59.79,42.281 119.57,86.523 176.69,123.863 7.13,-0.457 14.18,-0.684 21.14,-0.684 14.05,0 27.74,0.914 41.04,2.625 1.07,-13.214 1.65,-26.57 1.67,-40.054 0,-0.028 0,-0.059 0,-0.086 v -0.016 c 0,-0.207 0,-0.414 0,-0.617 v 0 C 3718.76,223.141 3495.9,0.164063 3220.91,0.00390625"
                 style="fill:#e1d9e6;fill-opacity:1;fill-rule:nonzero;stroke:none"
                 id="path168" />
              <path
                 d="m 3220.6,0.00390625 c 194.22,0 362.48,111.16009375 444.63,273.34009375 -186.29,-32.668 -151.62,-47.817 -281.39,12.293 -253.93,117.605 -316.67,30.422 -551.75,-99.258 C 2923.39,72.7578 3063.49,0.00390625 3220.6,0.00390625"
                 style="fill:#dcd9e1;fill-opacity:1;fill-rule:nonzero;stroke:none"
                 id="path170" />
            </g>
          </g>
        </g>
      </g>
    </g>
  </g>
</svg>
