<?xml version="1.0" standalone="no"?>
<!DOCTYPE svg PUBLIC "-//W3C//DTD SVG 20010904//EN"
 "http://www.w3.org/TR/2001/REC-SVG-20010904/DTD/svg10.dtd">
<svg version="1.0" xmlns="http://www.w3.org/2000/svg"
 width="700.000000pt" height="700.000000pt" viewBox="0 0 700.000000 700.000000"
 preserveAspectRatio="xMidYMid meet">
<metadata>
Created by potrace 1.11, written by Peter Selinger 2001-2013
</metadata>
<g transform="translate(0.000000,700.000000) scale(0.100000,-0.100000)"
fill="#000000" stroke="none">
<path d="M3209 6996 c-2 -2 -40 -6 -84 -10 -99 -7 -139 -12 -285 -37 -159 -26
-157 -26 -287 -60 -459 -118 -876 -321 -1263 -615 -176 -133 -367 -313 -519
-489 -76 -88 -110 -130 -189 -235 -132 -176 -301 -472 -386 -678 -26 -62 -79
-259 -91 -337 -3 -22 -7 -47 -10 -55 -2 -8 -7 -31 -9 -50 -3 -19 -12 -78 -20
-130 -8 -52 -17 -120 -21 -150 -3 -30 -8 -71 -11 -90 -19 -132 -28 -297 -29
-500 l0 -205 1272 0 c699 0 1274 -3 1276 -5 3 -3 32 -63 65 -135 33 -71 78
-168 100 -215 107 -227 132 -282 132 -289 0 -10 51 -57 75 -68 25 -13 95 -9
123 6 38 20 68 74 94 166 30 104 230 781 323 1090 35 116 66 203 68 195 5 -13
72 -316 83 -374 2 -12 6 -32 9 -46 3 -14 7 -34 9 -45 3 -11 14 -63 26 -115 25
-112 29 -126 35 -162 3 -15 26 -120 51 -235 25 -114 48 -219 50 -233 3 -14 7
-33 10 -42 3 -10 8 -30 10 -45 6 -36 52 -245 64 -298 6 -22 12 -51 14 -65 14
-84 49 -217 64 -242 21 -36 91 -71 130 -65 42 7 87 33 106 62 12 18 274 904
311 1050 16 65 31 105 40 106 5 1 445 2 976 3 854 1 965 -1 963 -14 -2 -8 -5
-87 -8 -175 -3 -88 -7 -169 -10 -180 -2 -11 -7 -42 -10 -70 -12 -95 -47 -263
-78 -370 -38 -135 -71 -240 -78 -250 -4 -5 -13 -28 -20 -50 -29 -93 -180 -358
-262 -460 -4 -5 -44 -55 -87 -110 -134 -170 -283 -324 -436 -450 -33 -28 -65
-55 -71 -61 -7 -6 -66 -48 -133 -95 -196 -136 -357 -223 -617 -335 -73 -31
-295 -101 -429 -133 -91 -23 -104 -25 -212 -41 -43 -6 -89 -13 -102 -15 -119
-20 -468 -26 -641 -11 -52 4 -97 9 -100 11 -3 2 -30 6 -60 9 -61 7 -102 13
-140 22 -14 3 -36 8 -50 10 -14 3 -52 12 -85 21 -33 8 -71 17 -85 20 -36 6
-282 90 -354 119 -88 37 -306 144 -338 166 -38 26 -42 22 -18 -18 12 -19 20
-38 16 -41 -12 -12 -239 113 -425 234 -207 135 -267 163 -286 133 -9 -15 49
-73 190 -190 50 -41 91 -78 93 -82 5 -11 153 -114 252 -175 125 -77 397 -212
540 -268 69 -27 129 -52 134 -56 15 -13 -75 11 -198 52 -249 84 -492 216 -826
450 -101 70 -159 103 -167 96 -2 -3 7 -28 21 -56 30 -58 31 -61 13 -61 -48 0
-349 303 -533 535 -56 71 -80 95 -82 82 -2 -10 3 -36 12 -58 20 -51 20 -57 -2
-33 -64 70 -222 303 -297 438 -44 80 -205 402 -205 411 0 3 -8 24 -19 48 -43
98 -144 386 -172 492 -11 44 -23 124 -25 178 -2 60 -10 109 -19 127 -30 58
-36 46 -30 -57 10 -177 13 -197 73 -383 25 -80 47 -149 48 -155 18 -82 124
-334 237 -565 356 -729 899 -1274 1630 -1636 316 -157 731 -282 1052 -320 28
-3 56 -7 63 -10 54 -17 553 -25 727 -11 493 39 1009 202 1460 462 89 51 342
218 355 234 3 4 43 37 90 73 350 275 680 673 899 1088 129 243 167 348 215
595 22 115 25 128 42 250 17 120 18 126 33 265 6 52 13 115 16 140 3 25 8 153
11 285 l7 240 -1310 0 -1310 -1 -34 -25 c-19 -15 -40 -37 -46 -50 -7 -13 -47
-143 -88 -289 -42 -146 -86 -296 -97 -335 l-21 -70 -13 55 c-13 54 -58 260
-68 310 -3 14 -23 108 -46 210 -22 102 -42 196 -45 210 -2 14 -16 77 -30 140
-15 63 -28 125 -31 138 -14 70 -55 263 -64 297 -5 22 -26 117 -46 210 -43 201
-38 175 -54 254 -26 124 -116 178 -217 129 -42 -21 -61 -56 -99 -183 -20 -66
-123 -415 -230 -775 -107 -360 -197 -661 -199 -669 -3 -8 -46 73 -96 179 -92
200 -114 234 -162 253 -21 9 -310 12 -1098 12 -1018 0 -1069 0 -1075 18 -8 25
-2 267 8 341 58 409 159 744 295 970 29 49 53 90 53 92 0 7 127 184 178 249
335 421 762 745 1242 940 272 111 620 194 889 213 180 12 573 4 624 -13 7 -2
35 -6 62 -9 58 -7 76 -10 205 -37 169 -36 383 -103 540 -170 90 -38 324 -159
332 -172 4 -7 8 -7 8 -2 0 6 -9 24 -20 40 -11 17 -20 33 -20 37 0 25 174 -68
425 -227 225 -144 272 -165 291 -133 9 14 -113 132 -230 221 -17 12 -41 34
-55 48 -103 105 -510 334 -799 449 -73 29 -131 54 -129 56 2 2 17 0 33 -5 16
-5 76 -24 134 -41 114 -35 120 -37 289 -116 149 -71 320 -172 512 -305 167
-114 213 -142 223 -132 3 3 -6 28 -21 55 -14 26 -24 51 -21 54 30 30 340 -270
528 -511 30 -39 64 -81 77 -95 l23 -25 0 23 c0 12 -7 39 -15 59 -8 20 -13 38
-11 40 10 11 187 -241 280 -399 52 -89 236 -449 236 -463 0 -3 9 -24 19 -48
11 -23 40 -98 65 -167 107 -299 127 -375 131 -496 3 -81 8 -108 25 -140 12
-21 24 -41 26 -43 10 -11 -7 241 -22 323 -7 37 -137 433 -171 521 -52 133
-184 412 -254 539 -239 430 -570 813 -954 1102 -75 57 -322 224 -330 224 -2 0
-28 14 -57 31 -176 105 -484 238 -703 304 -230 70 -400 104 -698 141 -41 5
-554 14 -558 10z"/>
</g>
</svg>
