<svg id="Layer_1" enable-background="new 0 0 505.859 505.859" height="512" viewBox="0 0 505.859 505.859" width="512" xmlns="http://www.w3.org/2000/svg"><g><path d="m252.93 30.932-203.794 115.503c-5.673 9.458-10.705 19.344-15.039 29.598-11.998 28.391-18.632 59.602-18.632 92.363 0 66.242 27.123 126.149 70.87 169.221l333.879-.684c43.341-43.021 70.178-102.645 70.178-168.537.001-131.148-106.315-237.464-237.462-237.464z" fill="#ecca34"/><path d="m49.143 146.439v120.73l106.538-95.25h2.823v260.392h105.128v-390.921h-80.594c-56.528 17.384-104.059 55.301-133.895 105.049z" fill="#dc6920"/><path d="m193.748 394.031h-107.401v43.575c4.356 4.289 8.886 8.402 13.562 12.347h306.046c4.923-4.154 9.686-8.492 14.254-13.027v-42.895h-95.543v-375.209c-.001-10.395-8.428-18.822-18.823-18.822h-99.352c-4.628 0-9.095 1.705-12.545 4.79l-108.296 96.822v165.244l108.097-96.645v223.82z" fill="#5339d3"/><g><path d="m311.163 407.534-12.462-380.258-94.241-13.773-105.307 94.149v129.019l72.608-80.409 32.698-13.74h2.791v265.012h-107.4l31.132 64.641h243.852c11.259-6.75 21.925-14.385 31.872-22.847v-41.794z" fill="#3b3896"/><g><g><g><path d="m216.295 44.499h63.872v394.031l30.996-30.996v-394.031h-106.703z" fill="#6b66fa"/></g></g><g><g><path d="m235.146 111.526h-42.522l-8.823 7.889-53.652 47.967-30.996 69.289 105.307-94.149z" fill="#6b66fa"/></g></g><path d="m99.85 407.534v42.382c41.338 34.896 94.747 55.943 153.08 55.943 32.571 0 63.608-6.563 91.867-18.431l1.194-.506c10.891-4.644 21.359-10.082 31.343-16.235h-246.489v-32.157z" fill="#6b66fa"/></g></g><g><g><path d="m253.759 452.802h-8.642v-370.591h-37.382l-77.73 68.842-5.73-6.469 80.183-71.015h49.301z" fill="#6b66fa"/></g></g><g><g><path d="m128.961 448.481h239.423v8.642h-239.423z" fill="#6b66fa"/></g></g><g><g><g><path d="m85.65 300.068 3.611 9.465c1.809 4.742 5.554 8.487 10.296 10.296l9.465 3.611-9.465 3.611c-4.742 1.809-8.487 5.554-10.296 10.296l-3.611 9.465-3.611-9.465c-1.809-4.742-5.554-8.487-10.296-10.296l-9.465-3.611 9.465-3.611c4.742-1.809 8.487-5.554 10.296-10.296z" fill="#fff"/></g></g><g><g><path d="m373.878 111.799 4.885 12.806c2.447 6.415 7.514 11.483 13.93 13.93l12.806 4.885-12.806 4.885c-6.415 2.447-11.483 7.514-13.93 13.93l-4.885 12.806-4.885-12.806c-2.447-6.415-7.514-11.483-13.93-13.93l-12.806-4.885 12.806-4.885c6.415-2.447 11.483-7.514 13.93-13.93z" fill="#fff"/></g></g><g><g><path d="m413.937 260.009 5.521 14.473c2.766 7.251 8.493 12.977 15.743 15.743l14.473 5.521-14.473 5.521c-7.251 2.766-12.977 8.493-15.743 15.743l-5.521 14.473-5.521-14.473c-2.766-7.251-8.493-12.977-15.743-15.743l-14.473-5.521 14.473-5.521c7.251-2.766 12.977-8.493 15.743-15.743z" fill="#fff"/></g></g></g></g></svg>