<svg id="Layer_1" enable-background="new 0 0 505.859 505.859" height="512" viewBox="0 0 505.859 505.859" width="512" xmlns="http://www.w3.org/2000/svg"><g><g><path d="m253.301 35.831c-97.486 0-181.125 59.287-216.828 143.773-36.525 86.431-16.955 179.03 37.31 243.512l363.931-5.854c31.852-40.139 50.876-90.918 50.876-146.141.001-129.948-105.342-235.29-235.289-235.29z" fill="#cf2283"/><g><path d="m129.133 211.333c0-27.93 11.542-46.574 12.784-49.752 10.099-19.107 32.523-24.185 54.243-24.185 21.648 0 37.769 6.217 48.371 18.656 10.593 12.439 15.894 27.414 15.894 44.916v.039h-.001c-.008 17.953-5.428 35.334-16.239 52.133-10.83 16.821-24.422 32.715-40.769 47.678-.846.774-1.917 1.858-3.167 3.189h122.302c8.413-11.089 16.037-23.321 22.868-36.702 11.057-21.648 16.584-45.834 16.584-72.557 0-28.094-6.682-53.435-20.039-76.012-13.366-22.566-32.715-40.425-58.045-53.554-25.319-13.12-55.232-19.682-89.746-19.693-.029 0-.057-.001-.085-.001-2.769 0-5.502.064-8.22.157-79.841 23.845-143.638 89.71-162.339 174.672h105.604z" fill="#9d1359"/></g></g><path d="m259.349 400.789 40.149-33.674 15.192-12.429c24.228-20.031 44.352-38.268 59.81-54.199 16.062-16.543 30.094-36.464 41.702-59.206 11.976-23.449 18.049-49.908 18.049-78.642 0-30.392-7.37-58.258-21.907-82.83-14.604-24.658-35.934-44.379-63.4-58.616-27.092-14.037-59.323-21.167-95.798-21.192l-.19-.001c-35.174 0-67.002 7.246-94.604 21.537-28.081 14.548-50.301 36.493-66.042 65.228-15.537 28.365-23.414 62.496-23.411 101.443l.001 13.378h132.481v-22.363c0-16.007 6.456-40.297 15.73-49.566 7.285-7.294 20.043-10.993 37.919-10.993 17.692 0 30.184 4.566 38.185 13.952 8.473 9.95 12.63 21.687 12.7 35.873v.402c-.006 15.467-4.622 30.153-14.108 44.896-10.157 15.774-23.128 30.931-38.556 45.052-16.001 14.651-39.595 34.56-70.125 59.173-6.67 5.244-13.364 10.646-19.89 16.052-6.992 5.783-14.052 11.571-20.984 17.202l-68.517 58.83v12.946c4.248 5.052 8.709 9.932 13.373 14.623l337.22-4.968c4.677-4.949 9.142-10.101 13.379-15.441v-16.466h-178.358z" fill="#03d0ff"/><g><path d="m226.698 414.168v-3.455l64.264-53.9 15.203-12.438c23.947-19.801 43.533-37.541 58.736-53.209 15.201-15.656 28.33-34.312 39.387-55.971 11.056-21.648 16.584-45.834 16.584-72.557 0-28.093-16.954-49.692-30.311-72.268-13.366-22.566-28.274-36.26-53.604-49.389-25.34-13.13-49.45-27.603-84.001-27.603-33.168 0-62.656 6.684-88.449 20.039-25.805 13.367-45.954 33.288-60.464 59.774-14.512 26.495-21.768 58.163-21.768 95.015l93.083-7.236 5.854-12.075c0-17.037 11.043-23.296 19.573-39.426 8.518-16.121 26.603-24.186 54.244-24.186 21.648 0 37.769 6.217 48.371 18.656 10.593 12.439 15.894 27.414 15.894 44.916 0 17.967 1.681 39.262-9.137 56.074-10.83 16.821-19.897 26.625-36.244 41.588-16.358 14.978-176.494 155.195-176.494 155.195l20.403 41.968c37.607 26.671 83.896 42.73 135.479 42.73 49.444 0 95.32-15.256 133.191-41.312 2.626-1.807 5.214-3.666 7.762-5.575 10.269-7.696 15.879-20.119 14.884-32.914z" fill="#5da3fb"/><g><g><path d="m173.636 115.113c-7.252 13.713-12.114 27.901-14.54 42.382h-43.988l-32.833 30.712h105.726v-8.984c0-17.037 4.254-33.623 12.784-49.752 8.148-15.421 25.074-23.45 50.721-24.12v-30.733c-26.881.603-60.916 8.407-77.87 40.495z" fill="#99e0fe"/></g><g><path d="m374.401 102.265c10.605 17.924 15.76 37.673 15.76 60.374 0 1.59-.029 3.161-.075 4.722h30.725c.039-1.566.061-3.139.061-4.722 0-28.093-6.682-53.435-20.039-76.012-13.366-22.566-32.715-40.425-58.045-53.554-25.319-13.119-55.232-19.682-89.746-19.693v30.712c29.385.011 54.827 5.477 75.614 16.248 20.306 10.525 35.272 24.243 45.745 41.925z" fill="#99e0fe"/></g><g fill="#99e0fe"><path d="m303.055 221.03c-10.83 16.821-24.422 32.715-40.77 47.678-16.358 14.976-39.972 34.897-70.829 59.774-6.457 5.075-13.021 10.365-19.694 15.893-6.684 5.527-13.712 11.295-21.075 17.275l-63.574 54.591v21.416c9.437 9.492 19.701 18.21 30.712 26.018v-33.325l52.553-45.127c6.885-5.594 13.934-11.373 20.976-17.196 6.292-5.212 12.711-10.392 19.081-15.397l.15-.118.148-.12c31.727-25.578 55.374-45.542 72.29-61.029 18.221-16.678 33.649-34.748 45.86-53.714 14.009-21.771 21.115-44.903 21.123-68.752h-30.712c-.009 17.952-5.429 35.333-16.239 52.133z"/><path d="m195.987 444.879h197.629v15.124c11.02-8.2 21.295-17.344 30.712-27.308v-18.528h-197.63z"/></g></g></g><path d="m145.561 428.165 134.91-112.555.083-.07c2.919-2.564 71.715-63.188 89.418-97.872 8.322-16.294 12.368-34.295 12.368-55.029 0-50.092-26.953-77.002-49.563-90.756-20.921-12.726-47.992-19.965-76.227-20.383-27.044-.379-53.456 5.329-74.32 16.132-19.025 9.856-33.545 24.271-44.392 44.071-5.332 9.734-9.47 20.738-12.298 32.706l8.333 1.969c2.652-11.22 6.513-21.502 11.475-30.561 10.004-18.259 23.356-31.534 40.82-40.582 41.773-21.628 102.889-19.928 142.159 3.964 20.735 12.613 45.451 37.327 45.451 83.44 0 19.348-3.739 36.075-11.432 51.136-16.8 32.913-85.415 93.546-87.403 95.297l-137.945 115.085v40.935h249.49c2.499-1.719 4.972-3.476 7.4-5.288v-3.275h-248.327z" fill="#99e0fe"/><g><g><g><path d="m64.102 317.365 3.578 9.379c1.792 4.698 5.503 8.409 10.202 10.202l9.379 3.578-9.379 3.578c-4.698 1.792-8.409 5.503-10.202 10.202l-3.578 9.379-3.578-9.379c-3.983-10.44-14.072-10.967-19.58-13.779l9.379-3.578c4.698-1.792 8.409-5.503 10.202-10.202z" fill="#fff"/></g></g><g><g><path d="m142.266 229.085c3.868 7.578 4.468 21.084 18.643 26.491l12.689 4.84-12.689 4.84c-14.117 5.385-14.879 19.119-18.643 26.491-3.868-7.578-4.468-21.084-18.643-26.491l-12.689-4.84c7.578-3.868 21.084-4.468 26.491-18.643z" fill="#fff"/></g></g><g><g><path d="m443.363 289.141 5.471 14.341c2.741 7.184 8.415 12.859 15.599 15.599l14.341 5.471-14.341 5.471c-7.184 2.741-12.859 8.415-15.599 15.599l-5.471 14.341-5.471-14.341c-2.741-7.184-8.415-12.859-15.599-15.599l-14.341-5.471 14.341-5.471c7.184-2.741 12.859-8.415 15.599-15.599z" fill="#fff"/></g></g></g></g></svg>
