<svg id="Layer_1" enable-background="new 0 0 506.391 506.391" height="512" viewBox="0 0 506.391 506.391" width="512" xmlns="http://www.w3.org/2000/svg"><g><path d="m439.481 119.293c-43.679-54.637-110.895-89.636-186.285-89.636l-225.33 160.414c-8.449 24.426-13.038 50.653-13.038 77.953 0 56.549 19.692 108.5 52.593 149.368l191.15 53.608 194.259-72.675c24.494-37.45 38.734-82.213 38.734-130.301-.001-56.256-19.489-107.961-52.083-148.731z" fill="#73ccfd"/><path d="m158.985 147.624c11.884-10.224 27.826-15.342 47.805-15.342 20.445 0 36.857 5.475 49.231 16.41 12.364 10.949 18.552 25.453 18.552 43.526 0 .115.001.229.001.344h-.008c-.076 17.438-5.901 31.239-17.474 41.394-11.661 10.235-27.237 15.342-46.734 15.342h-45.665v84.193h43.524c21.874 0 39.712 5.831 53.513 17.481 13.445 11.367 20.321 26.466 20.659 45.283h.026c.003.484.006.969.006 1.45 0 6.508-.799 12.601-2.357 18.301h109.919c.061-1.42.114-2.843.137-4.275.026-.867.041-1.737.041-2.611 0-1.92-.036-3.808-.094-5.675-.002-.074-.007-.147-.009-.222-.058-1.818-.148-3.608-.261-5.375 0-.002 0-.005 0-.008-1.437-22.391-7.257-40.757-17.473-55.075-11.895-16.645-36.161-35.09-62.788-46.378v-4.28c2.854 0 10.581-3.679 23.189-11.06 12.598-7.369 24.37-18.785 35.317-34.249 10.467-14.784 15.916-33.399 16.367-55.822.02-1.01.044-2.017.044-3.042 0-22.831-5.953-45.418-17.837-67.783-11.896-22.353-31.038-41.026-57.438-56.009-25.513-14.481-58.053-21.935-97.563-22.42-.954-.025-1.918-.034-2.883-.041-.085 0-.167-.003-.251-.004v.001c-.327-.002-.649-.012-.978-.012-12.263 0-23.881.65-34.852 1.951-62.742 22.524-113.303 70.602-139.12 131.693-2.046 4.84-3.923 9.769-5.651 14.766h106.846c4.281-18.071 12.364-32.219 24.259-42.452z" fill="#305689"/><path d="m430.135 301.097c-10.908-12.991-26.748-28.081-45.913-39.304.924-.533 1.883-1.089 2.877-1.671 13.979-8.177 27.057-20.784 38.871-37.471 11.809-16.68 18.049-37.651 18.547-62.326l.007-.353c.02-.965.039-1.928.039-2.908 0-24.517-6.421-49.032-19.09-72.872-12.85-24.145-33.585-44.458-61.629-60.373-26.875-15.254-61.246-23.248-102.163-23.762-.985-.024-1.978-.034-2.929-.041l-.589-.008c-.255-.005-.51-.008-.768-.008-59.51 0-105.003 15.222-135.213 45.245-30.294 30.106-49.662 68.817-56.01 111.948l-2.285 15.528h132.823c2.195-6.506 3.72-29.271 21.923-44.932 9.208-7.922 21.659-11.773 38.074-11.773 55.977.007 52.878 45.419 52.934 45.531-.058 13.166-4.156 23.137-12.531 30.486-8.959 7.863-21.033 11.685-36.912 11.685h-58.359v109.714h56.258c32.099 0 58.641 15.918 59.221 48.271l.029 1.459c-.062 14.676-5.027 26.308-15.17 35.55-10.583 9.636-25.231 14.32-44.781 14.32h-.013l-1.728-.029c-16.427-.274-29.559-4.292-40.151-12.289-20.696-15.608-22.233-38.738-24.594-45.086h-136.482c1.372 6.061 1.809 31.206 13.006 61.752 9.557 11.871 20.228 22.808 31.854 32.651l157.696 56.33c81.988-1.278 153.916-43.959 195.831-108.045 3.825-33.756-2.341-72.995-22.68-97.219z" fill="#e48868"/><g><path d="m436.265 363.014c-1.408-21.973-7.132-39.986-17.157-54.036-11.671-16.332-35.479-34.429-61.604-45.504v-4.199c2.8 0 10.381-3.61 22.752-10.852 12.36-7.23 23.911-18.431 34.652-33.603 10.271-14.508 15.631-32.764 16.073-54.77.02-.987-3.855-4.714-3.855-5.717 0-22.401-11.284-41.097-22.943-63.04-11.672-21.931-23.971-32.57-49.874-47.27-25.902-14.701-56.309-30.469-96.913-30.469-55.544 0-97.688 13.508-125.659 41.304-28.533 28.356-46.22 63.981-52.155 104.308l94.651-10.505c4.201-17.731 16.951-28.066 28.622-38.106 11.66-10.031 34.239-8.093 53.842-8.093 20.06 0 36.162 5.372 48.303 16.101 12.131 10.742 18.202 24.973 18.202 42.705 0 17.27 1.981 33.032-9.449 43.062-11.441 10.042-32.109 21.316-51.239 21.316h-39.473l.283 62.947 42.132 2.055c21.462 0 35.784 9.121 49.325 20.552 13.531 11.44 16.121 32.551 16.121 51.683 0 18.671-6.54 33.951-19.601 45.853-13.071 11.901-31.044 17.851-53.905 17.851-20.072 0-41.323 2.552-54.624-7.489-13.301-10.031-25.395-22.052-30.056-40.254l-102.934-9.661c3.843 30.744 13.688 57.685 29.508 80.848 41.529 35.152 95.236 56.361 153.906 56.361 60.503 0 115.731-22.554 157.764-59.697.038-.066.073-.134.111-.2 13.061-22.401 22.572-43.7 22.572-70.303 0-3.796 2.852-9.594 2.622-13.178z" fill="#d52242"/><g><g><g><path d="m209.792 117.514c11.66-10.031 27.302-15.052 46.904-15.052.035 0 .068.002.102.002v-31.114c-.035 0-.068-.002-.102-.002-27.173 0-49.78 7.597-67.196 22.58-10.773 9.268-19.328 20.691-25.58 34.125h-44.163l-40.176 31.114h106.409c4.202-17.731 12.132-31.613 23.802-41.653z" fill="#e48868"/></g></g><g><g><path d="m386.033 105.16c9.329 17.556 13.864 34.535 13.864 51.906 0 1.02-.054 1.989-.08 2.984h31.15c.02-.991.043-1.979.043-2.984 0-22.401-5.841-44.562-17.501-66.505-11.672-21.931-30.453-40.253-56.355-54.953-25.695-14.584-58.634-21.926-98.799-22.042v31.113c34.519.111 62.594 6.155 83.442 17.989 20.844 11.828 35.317 25.734 44.236 42.492z" fill="#e48868"/></g></g><g><g><path d="m268.211 247.053c12.558 0 25.079-2.328 36.541-7.46 7.989-3.577 15.275-8.243 21.819-13.987 18.072-15.857 27.654-37.984 27.737-64.001h-31.113c-.075 17.109-5.79 30.65-17.145 40.614-11.441 10.042-26.723 15.052-45.853 15.052h-44.805v29.781h52.819z" fill="#e48868"/></g></g><path d="m436.252 363.015h-31.182c.283 3.526.426 7.215.426 11.067 0 21.183-5.027 40.1-15.361 57.826-10.116 17.337-25.548 31.156-47.187 42.252-22.269 11.427-51.053 17.22-85.553 17.22-.139 0-.272-.006-.411-.006v14.969c65.367-1.02 124.339-28.345 166.808-71.863 8.538-18.76 12.817-38.892 12.817-60.398.001-3.799-.127-7.48-.357-11.067z" fill="#e48868"/><g><g><path d="m108.703 400.296h50.122c7.138 14.435 17.098 26.515 29.772 36.073 18.289 13.806 40.772 20.953 66.833 21.297v-31.111c-19.193-.32-35.225-5.309-48.087-15.018-13.301-10.031-22.291-24.152-26.952-42.354h-110.609z" fill="#e48868"/></g></g><g><g><path d="m310.6 317.029c13.192 11.153 19.938 25.967 20.269 44.43h31.111c-.361-27.597-11.146-51.158-31.311-68.205-19.251-16.251-43.668-24.491-72.574-24.491h-11.59v-24.365l-31.114 2.654v52.824h42.704c21.463.001 38.964 5.723 52.505 17.153z" fill="#e48868"/></g></g><g><g><path d="m412.501 325.521h-.001z" fill="#7bd48d"/></g></g></g></g><g><g><g><path d="m253.245 482.72c-16.24 0-30.886-2.625-43.172-6.107-43.516-12.332-78.299-41.427-86.787-62.431l8.044-3.251c6.322 15.645 36.471 44.686 81.109 57.335 31.522 8.932 79.555 11.882 129.46-24.742 1.371-1.292 2.894-2.677 4.528-4.162 19.339-17.573 51.705-46.983 33.266-103.83-14.065-43.359-66.53-63.079-67.058-63.273l-.352-.147c-9.019-4.246-18.865-7.331-29.264-9.168l.005-8.543c10.986-1.928 20.928-5.997 29.383-9.66 43.203-18.712 63.046-56.584 63.242-56.964l.32-.528c4.576-6.462 7.029-15.885 7.294-28.01-.007-.236-.002-.499.006-.868.316-14.269-3.903-30.392-11.879-45.4-7.403-13.908-19.764-25.643-37.788-35.872-18.386-10.436-44.981-17.186-74.886-19.008-.466-.029-.83-.052-1.084-.07-3.723.074-63.151 1.745-92.263 30.677-8.879 8.824-16.407 18.657-22.377 29.226l-7.552-4.265c6.36-11.262 14.373-21.73 23.815-31.113 32.43-32.23 95.793-33.178 98.475-33.203l.47.021c.172.016.525.036 1.044.068 18.068 1.1 52.312 5.178 78.641 20.123 19.498 11.066 32.963 23.935 41.165 39.342 8.662 16.3 13.241 33.937 12.892 49.666-.004.195-.008.341-.008.437-.001-.186-.02-.32-.031-.4l.036.654c-.279 13.823-3.21 24.842-8.714 32.758-2.073 3.933-22.72 41.351-67.37 60.69-4.471 1.936-9.343 3.98-14.592 5.803 5.027 1.598 9.887 3.496 14.549 5.68 4.168 1.563 57.069 22.229 72.133 68.67 20.168 62.176-16.164 95.19-35.684 112.927-1.666 1.514-3.214 2.919-4.597 4.228l-.41.343c-33.402 24.586-66.06 32.366-94.009 32.367z" fill="#e48868"/></g></g></g><g><g><g><path d="m61.755 279.468 3.624 9.501c1.816 4.76 5.575 8.519 10.335 10.335l9.501 3.624-9.501 3.624c-4.76 1.816-8.519 5.575-10.335 10.335l-3.624 9.501-3.624-9.501c-1.816-4.76-5.575-8.519-10.335-10.335l-9.501-3.624 9.501-3.624c4.76-1.816 8.519-5.575 10.335-10.335z" fill="#fff"/></g></g><g><g><path d="m137.174 203.554 4.904 12.855c2.457 6.44 7.543 11.526 13.983 13.983l12.855 4.904-12.855 4.904c-6.44 2.457-11.526 7.543-13.983 13.983l-4.904 12.855-4.904-12.855c-2.457-6.44-7.543-11.526-13.983-13.983l-12.855-4.904 12.855-4.904c6.44-2.457 11.526-7.543 13.983-13.983z" fill="#fff"/></g></g><g><g><path d="m450.165 222.414 5.542 14.528c2.776 7.278 8.525 13.027 15.803 15.803l14.528 5.542-14.528 5.542c-7.278 2.776-13.027 8.525-15.803 15.803l-5.542 14.528-5.542-14.528c-2.776-7.278-8.525-13.027-15.803-15.803l-14.528-5.542 14.528-5.542c7.278-2.776 13.027-8.525 15.803-15.803z" fill="#fff"/></g></g></g></g></svg>