<svg id="Layer_1" enable-background="new 0 0 506.087 506.087" height="512" viewBox="0 0 506.087 506.087" width="512" xmlns="http://www.w3.org/2000/svg"><g><path d="m397.816 56.22-191.983-42.084c-82.086 15.806-149.779 72.051-181.531 147.188-12.542 29.677-19.476 62.301-19.476 96.545 0 22.057 2.877 43.442 8.276 63.801l62.184 109.447c39.226 40.24 92 67.21 150.954 73.54l171.58-45.142c62.646-45.058 103.441-118.588 103.441-201.646 0-83.06-40.797-156.591-103.445-201.649z" fill="#ecca34"/><path d="m340.891 25.665c-27.311-10.339-56.914-16.013-87.847-16.013-16.143 0-31.926 1.543-47.21 4.486l-192.717 307.528c11.099 41.847 32.851 79.349 62.182 109.438l150.942.495v73.044c8.806.946 17.745 1.444 26.802 1.444 3.659 0 7.299-.08 10.918-.238l76.858-74.25v-88.367-312.026c-.14-.074-.088-2.225.072-5.541zm-114.649 315.319h-110.086l110.085-172.992v172.992z" fill="#dc6920"/><path d="m397.813 291.827v-273.005c0-10.395-8.427-18.822-18.822-18.822h-128.582c-6.51 0-12.557 3.364-15.991 8.894l-183.392 295.386v96.22l212.935.698v104.636c4.538-.197 9.045-.515 13.517-.952l106.82-36.313c4.608-2.877 9.115-5.9 13.515-9.065v-58.262h57.248v-109.415zm-133.852-2.095h-64.486l64.486-101.337z" fill="#5b36d8"/><g><path d="m371.123 310.998v-276.868l-123.665-20.613-182.914 294.618v78.892l129.511-15.115 83.424 15.813v117.164l85.189-32.804 21.628-84.36h57.248v-82.381zm-93.644-7.749h-102.628l39.754-87.268 62.873-74.005v161.273z" fill="#3b3896"/><g><g><g><path d="m308.508 356.798-30.927-.101-182.009-.598-31.028 30.928 212.935.698z" fill="#6b66fa"/></g></g><path d="m353.267 471.192h-44.759l-31.029 33.696h.006c38.948-3.807 75.249-16.621 106.81-36.324v-80.84l-31.029-31.029v114.497z" fill="#6b66fa"/><g><g><path d="m264.716 44.546h88.551v291.827h57.248l31.029-31.029h-57.248v-291.827h-136.838z" fill="#6b66fa"/></g></g><g><g><path d="m268.353 98.522-17.052 26.796-102.628 161.272-30.346 47.688 56.524-31.029 102.628-161.273 10.552-43.454z" fill="#6b66fa"/></g></g></g></g><g><g><g><path d="m62.339 168.397 3.615 9.475c1.811 4.747 5.56 8.496 10.307 10.307l9.475 3.615-9.475 3.615c-4.747 1.811-8.496 5.56-10.307 10.307l-3.615 9.475-3.615-9.475c-1.811-4.747-5.56-8.496-10.307-10.307l-9.475-3.615 9.475-3.615c4.747-1.811 8.496-5.56 10.307-10.307z" fill="#fff"/></g></g><g><g><path d="m149.982 66.867 4.89 12.82c2.45 6.422 7.523 11.495 13.945 13.945l12.82 4.89-12.82 4.89c-6.422 2.45-11.495 7.523-13.945 13.945l-4.89 12.82-4.89-12.82c-2.45-6.422-7.523-11.495-13.945-13.945l-12.82-4.89 12.82-4.89c6.422-2.45 11.495-7.523 13.945-13.945z" fill="#fff"/></g></g><g><g><path d="m441.544 170.624 5.527 14.489c2.769 7.258 8.502 12.991 15.76 15.76l14.489 5.527-14.489 5.527c-7.258 2.769-12.991 8.502-15.76 15.76l-5.527 14.489-5.527-14.489c-2.769-7.258-8.502-12.991-15.76-15.76l-14.489-5.527 14.489-5.527c7.258-2.769 12.991-8.502 15.76-15.76z" fill="#fff"/></g></g></g><g><g><path d="m330.106 473.995h-8.651v-129.843h-227.97v-32.902l.667-1.057 159.313-252.638h76.641v277.946h80.171v8.651h-80.171zm-227.97-138.494h219.319v-269.295h-63.218l-156.101 247.545z" fill="#6b66fa"/></g></g></g></svg>